<svg width="29" height="61" viewBox="0 0 29 61" fill="none" xmlns="http://www.w3.org/2000/svg">
<path d="M1.72558 55.0255C1.4938 55.307 1.31261 55.6381 1.19234 56C1.07207 56.3618 1.01508 56.7473 1.02462 57.1344C1.03416 57.5215 1.11005 57.9027 1.24795 58.2561C1.38586 58.6096 1.58307 58.9284 1.82834 59.1944C2.07361 59.4604 2.36213 59.6683 2.67742 59.8063C2.99272 59.9444 3.32861 60.0098 3.66593 59.9988C4.00325 59.9879 4.33539 59.9008 4.64338 59.7425C4.95137 59.5843 5.22919 59.3579 5.46096 59.0765L27.2978 32.542C27.7487 31.9946 28 31.2699 28 30.5166C28 29.7633 27.7487 29.0385 27.2978 28.4911L5.46096 1.95373C5.23071 1.6661 4.95296 1.43383 4.64384 1.27042C4.33472 1.10701 4.00038 1.01572 3.66026 1.00186C3.32013 0.987988 2.98099 1.05182 2.66254 1.18964C2.34409 1.32746 2.05268 1.53651 1.80523 1.80467C1.55778 2.07283 1.35922 2.39474 1.22109 2.75171C1.08296 3.10868 1.00802 3.49359 1.00061 3.88408C0.993198 4.27456 1.05347 4.66285 1.17793 5.02638C1.30238 5.38991 1.48853 5.72144 1.72558 6.00171L21.8977 30.5166L1.72558 55.0255Z" fill="#D9D9D9" fill-opacity="0.81"/>
<path d="M5.84694 59.3943L5.84703 59.3942L27.6837 32.86C27.6837 32.8599 27.6838 32.8598 27.6838 32.8598C28.2133 32.217 28.5 31.3781 28.5 30.5166C28.5 29.6551 28.2133 28.8161 27.6839 28.1734C27.6838 28.1733 27.6837 28.1733 27.6837 28.1732L5.85131 1.64127C5.85059 1.64038 5.84987 1.63948 5.84916 1.63859C5.57886 1.30163 5.24943 1.02498 4.87751 0.828381C4.50431 0.631104 4.09731 0.51926 3.68062 0.502274C3.26389 0.485279 2.85002 0.563686 2.46395 0.73077C2.07819 0.897717 1.73005 1.14885 1.43777 1.46559C1.14562 1.78219 0.914469 2.1586 0.754784 2.57128C0.595104 2.98394 0.509197 3.4268 0.500698 3.87459C0.492201 4.32237 0.561232 4.76874 0.704878 5.18833C0.848139 5.60678 1.06356 5.99253 1.34155 6.32192C1.34231 6.32281 1.34306 6.3237 1.34381 6.32459L21.2501 30.5165L1.33959 54.7077C1.33957 54.7077 1.33955 54.7078 1.33952 54.7078C1.06691 55.0389 0.856621 55.4248 0.717865 55.8422C0.579096 56.2597 0.513828 56.7028 0.524773 57.1467C0.535715 57.5906 0.622717 58.0292 0.78215 58.4379C0.941591 58.8465 1.1712 59.2193 1.46076 59.5333C1.75044 59.8475 2.09507 60.0972 2.47691 60.2644C2.85905 60.4317 3.26888 60.512 3.68216 60.4986C4.0954 60.4851 4.49985 60.3784 4.8719 60.1872C5.24366 59.9962 5.57421 59.7255 5.84694 59.3943Z" stroke="#D9D9D9" stroke-opacity="0.76"/>
</svg>
