<svg width="29" height="61" viewBox="0 0 29 61" fill="none" xmlns="http://www.w3.org/2000/svg">
<path d="M27.2744 5.97447C27.5062 5.69299 27.6874 5.36188 27.8077 5.00005C27.9279 4.63821 27.9849 4.25273 27.9754 3.86561C27.9658 3.4785 27.8899 3.09733 27.752 2.74388C27.6141 2.39042 27.4169 2.0716 27.1717 1.80561C26.9264 1.53962 26.6379 1.33168 26.3226 1.19366C26.0073 1.05563 25.6714 0.990228 25.3341 1.00118C24.9967 1.01213 24.6646 1.09922 24.3566 1.25748C24.0486 1.41574 23.7708 1.64207 23.539 1.92354L1.70223 28.458C1.25127 29.0054 1 29.7301 1 30.4834C1 31.2367 1.25127 31.9615 1.70223 32.5089L23.539 59.0463C23.7693 59.3339 24.047 59.5662 24.3562 59.7296C24.6653 59.893 24.9996 59.9843 25.3397 59.9981C25.6799 60.012 26.019 59.9482 26.3375 59.8104C26.6559 59.6725 26.9473 59.4635 27.1948 59.1953C27.4422 58.9272 27.6408 58.6053 27.7789 58.2483C27.917 57.8913 27.992 57.5064 27.9994 57.1159C28.0068 56.7254 27.9465 56.3372 27.8221 55.9736C27.6976 55.6101 27.5115 55.2786 27.2744 54.9983L7.10234 30.4834L27.2744 5.97447Z" fill="#D9D9D9" fill-opacity="0.81"/>
<path d="M23.1531 1.60571L23.153 1.60582L1.31632 28.14C1.3163 28.1401 1.31617 28.1402 1.31615 28.1402C0.78668 28.783 0.5 29.6219 0.5 30.4834C0.5 31.3449 0.786738 32.1839 1.31614 32.8266C1.3162 32.8267 1.31626 32.8267 1.31632 32.8268L23.1487 59.3587C23.1494 59.3596 23.1501 59.3605 23.1508 59.3614C23.4211 59.6984 23.7506 59.975 24.1225 60.1716C24.4957 60.3689 24.9027 60.4807 25.3194 60.4977C25.7361 60.5147 26.15 60.4363 26.5361 60.2692C26.9218 60.1023 27.27 59.8511 27.5622 59.5344C27.8544 59.2178 28.0855 58.8414 28.2452 58.4287C28.4049 58.0161 28.4908 57.5732 28.4993 57.1254C28.5078 56.6776 28.4388 56.2313 28.2951 55.8117C28.1519 55.3932 27.9364 55.0075 27.6584 54.6781C27.6577 54.6772 27.6569 54.6763 27.6562 54.6754L7.74989 30.4835L27.6604 6.29229C27.6604 6.29227 27.6605 6.29224 27.6605 6.29221C27.9331 5.96112 28.1434 5.57521 28.2821 5.15775C28.4209 4.74027 28.4862 4.29721 28.4752 3.85329C28.4643 3.40938 28.3773 2.97079 28.2178 2.56214C28.0584 2.15348 27.8288 1.78068 27.5392 1.46666C27.2496 1.15251 26.9049 0.90278 26.5231 0.735624C26.141 0.568339 25.7311 0.488026 25.3178 0.501443C24.9046 0.514858 24.5001 0.621582 24.1281 0.812757C23.7563 1.00378 23.4258 1.27449 23.1531 1.60571Z" stroke="#D9D9D9" stroke-opacity="0.76"/>
</svg>
