<svg width="124" height="126" viewBox="0 0 124 126" fill="none" xmlns="http://www.w3.org/2000/svg">
<path d="M62.0671 121.35C54.4894 121.35 46.986 119.834 39.9852 116.89C32.9843 113.945 26.6232 109.63 21.265 104.189C15.9068 98.7486 11.6565 92.2897 8.75662 85.1812C5.85679 78.0728 4.36426 70.454 4.36426 62.7599C4.36426 55.0658 5.85679 47.447 8.75662 40.3386C11.6565 33.2302 15.9068 26.7713 21.265 21.3307C26.6232 15.8901 32.9843 11.5745 39.9852 8.63004C46.986 5.68563 54.4894 4.17017 62.0671 4.17017C77.3708 4.17017 92.0477 10.343 102.869 21.3307C113.69 32.3184 119.77 47.2209 119.77 62.7599C119.77 78.2989 113.69 93.2014 102.869 104.189C92.0477 115.177 77.3708 121.35 62.0671 121.35Z" stroke="#858585" stroke-width="5" stroke-linecap="round" stroke-linejoin="round"/>
<path d="M36.4189 88.7992L42.8304 82.2892L52.4475 88.7992L62.0646 82.2892L71.6818 88.7992L81.2989 82.2892L87.7103 88.7992M39.6247 59.5043L49.2418 49.7393L39.6247 39.9744M84.5046 59.5043L74.8875 49.7393L84.5046 39.9744" stroke="#858585" stroke-width="5" stroke-linecap="round" stroke-linejoin="round"/>
</svg>
