<svg width="124" height="126" viewBox="0 0 124 126" fill="none" xmlns="http://www.w3.org/2000/svg">
<path d="M42.6951 48.74H42.7592M81.1636 48.74H81.2278M4.22656 61.7599C4.22656 69.454 5.71909 77.0728 8.61893 84.1812C11.5188 91.2897 15.7691 97.7486 21.1273 103.189C26.4855 108.63 32.8466 112.945 39.8475 115.89C46.8483 118.834 54.3517 120.35 61.9294 120.35C69.507 120.35 77.0105 118.834 84.0113 115.89C91.0121 112.945 97.3732 108.63 102.731 103.189C108.09 97.7486 112.34 91.2897 115.24 84.1812C118.14 77.0728 119.632 69.454 119.632 61.7599C119.632 54.0658 118.14 46.447 115.24 39.3386C112.34 32.2302 108.09 25.7713 102.731 20.3307C97.3732 14.8901 91.0121 10.5745 84.0113 7.63005C77.0105 4.68564 69.507 3.17017 61.9294 3.17017C54.3517 3.17017 46.8483 4.68564 39.8475 7.63005C32.8466 10.5745 26.4855 14.8901 21.1273 20.3307C15.7691 25.7713 11.5188 32.2302 8.61893 39.3386C5.71909 46.447 4.22656 54.0658 4.22656 61.7599Z" stroke="#858585" stroke-width="5" stroke-linecap="round" stroke-linejoin="round"/>
<path d="M45.9014 82.9176C47.9907 80.7524 50.4846 79.0323 53.2368 77.858C55.9891 76.6837 58.9445 76.0789 61.9299 76.0789C64.9153 76.0789 67.8707 76.6837 70.623 77.858C73.3753 79.0323 75.8691 80.7524 77.9585 82.9176" stroke="#858585" stroke-width="5" stroke-linecap="round" stroke-linejoin="round"/>
</svg>
