<svg width="124" height="126" viewBox="0 0 124 126" fill="none" xmlns="http://www.w3.org/2000/svg">
<path d="M42.7058 49.74H42.77M81.1744 49.74H81.2385M42.7058 82.2898H81.1744M4.2373 62.7599C4.2373 70.454 5.72983 78.0728 8.62967 85.1812C11.5295 92.2897 15.7799 98.7486 21.1381 104.189C26.4963 109.63 32.8574 113.945 39.8582 116.89C46.859 119.834 54.3625 121.35 61.9401 121.35C69.5178 121.35 77.0212 119.834 84.022 116.89C91.0228 113.945 97.384 109.63 102.742 104.189C108.1 98.7486 112.351 92.2897 115.251 85.1812C118.15 78.0728 119.643 70.454 119.643 62.7599C119.643 55.0658 118.15 47.447 115.251 40.3386C112.351 33.2302 108.1 26.7713 102.742 21.3307C97.384 15.8901 91.0228 11.5745 84.022 8.63005C77.0212 5.68564 69.5178 4.17017 61.9401 4.17017C54.3625 4.17017 46.859 5.68564 39.8582 8.63005C32.8574 11.5745 26.4963 15.8901 21.1381 21.3307C15.7799 26.7713 11.5295 33.2302 8.62967 40.3386C5.72983 47.447 4.2373 55.0658 4.2373 62.7599Z" stroke="#858585" stroke-width="5" stroke-linecap="round" stroke-linejoin="round"/>
</svg>
