<svg width="124" height="126" viewBox="0 0 124 126" fill="none" xmlns="http://www.w3.org/2000/svg">
<path d="M42.7156 49.74H42.7797M81.1841 49.74H81.2483M4.24707 62.7599C4.24707 70.454 5.7396 78.0728 8.63943 85.1812C11.5393 92.2897 15.7896 98.7486 21.1478 104.189C26.506 109.63 32.8671 113.945 39.868 116.89C46.8688 119.834 54.3722 121.35 61.9499 121.35C69.5275 121.35 77.031 119.834 84.0318 116.89C91.0326 113.945 97.3937 109.63 102.752 104.189C108.11 98.7486 112.36 92.2897 115.26 85.1812C118.16 78.0728 119.653 70.454 119.653 62.7599C119.653 55.0658 118.16 47.447 115.26 40.3386C112.36 33.2302 108.11 26.7713 102.752 21.3307C97.3937 15.8901 91.0326 11.5745 84.0318 8.63005C77.031 5.68564 69.5275 4.17017 61.9499 4.17017C54.3722 4.17017 46.8688 5.68564 39.868 8.63005C32.8671 11.5745 26.506 15.8901 21.1478 21.3307C15.7896 26.7713 11.5393 33.2302 8.63943 40.3386C5.7396 47.447 4.24707 55.0658 4.24707 62.7599Z" stroke="#858585" stroke-width="5" stroke-linecap="round" stroke-linejoin="round"/>
<path d="M45.9219 82.29C48.0112 84.4552 50.5051 86.1754 53.2574 87.3497C56.0096 88.524 58.965 89.1288 61.9504 89.1288C64.9358 89.1288 67.8912 88.524 70.6435 87.3497C73.3958 86.1754 75.8896 84.4552 77.979 82.29" stroke="#858585" stroke-width="5" stroke-linecap="round" stroke-linejoin="round"/>
</svg>
