<svg width="124" height="126" viewBox="0 0 124 126" fill="none" xmlns="http://www.w3.org/2000/svg">
<path d="M113.489 61.1752C113.489 49.6331 110.129 38.3631 103.854 28.8555C97.5784 19.3479 88.6835 12.0507 78.3455 7.92901C68.0074 3.80727 56.7132 3.05516 45.9563 5.77213C35.1995 8.4891 25.4869 14.5472 18.103 23.1451C10.7191 31.7431 6.01177 42.4759 4.60353 53.9242C3.19529 65.3725 5.15249 76.9969 10.2163 87.2601C15.2801 97.5232 23.212 105.942 32.9629 111.402C42.7138 116.863 53.8244 119.108 64.8253 117.841M40.6026 48.5069H40.6634M77.046 48.5069H77.1068" stroke="#858585" stroke-width="5" stroke-linecap="round" stroke-linejoin="round"/>
<path d="M43.6396 80.1775C45.8632 82.4058 48.5147 84.1169 51.4191 85.1978C54.3235 86.2788 57.4147 86.705 60.4886 86.4483M101.305 121.35L116.599 105.007C118.497 102.957 119.56 100.22 119.565 97.3704C119.569 94.5206 118.515 91.7798 116.624 89.7231C115.704 88.7206 114.599 87.9222 113.376 87.3757C112.152 86.8293 110.836 86.5461 109.505 86.5432C108.175 86.5402 106.857 86.8175 105.632 87.3585C104.406 87.8995 103.298 88.693 102.374 89.6914L101.354 90.7809L100.333 89.6914C99.4129 88.6893 98.3079 87.8914 97.0845 87.3455C95.8611 86.7996 94.5446 86.517 93.2139 86.5147C91.8833 86.5123 90.5658 86.7902 89.3407 87.3317C88.1155 87.8733 87.0078 88.6672 86.0841 89.6661C84.1878 91.7159 83.1261 94.4517 83.1216 97.3C83.117 100.148 84.17 102.888 86.0598 104.944L101.305 121.35Z" stroke="#858585" stroke-width="5" stroke-linecap="round" stroke-linejoin="round"/>
</svg>
