<svg width="125" height="127" viewBox="0 0 125 127" fill="none" xmlns="http://www.w3.org/2000/svg">
<path d="M63.0671 121.35C55.4894 121.35 47.986 119.834 40.9852 116.89C33.9843 113.945 27.6232 109.63 22.265 104.189C16.9068 98.7486 12.6565 92.2897 9.75662 85.1812C6.85679 78.0728 5.36426 70.454 5.36426 62.7599C5.36426 55.0658 6.85679 47.447 9.75662 40.3386C12.6565 33.2302 16.9068 26.7713 22.265 21.3307C27.6232 15.8901 33.9843 11.5745 40.9852 8.63004C47.986 5.68563 55.4894 4.17017 63.0671 4.17017C78.3708 4.17017 93.0477 10.343 103.869 21.3307C114.69 32.3184 120.77 47.2209 120.77 62.7599C120.77 78.2989 114.69 93.2014 103.869 104.189C93.0477 115.177 78.3708 121.35 63.0671 121.35Z" stroke="#FE602F" stroke-width="5" stroke-linecap="round" stroke-linejoin="round"/>
<path d="M37.4189 88.7992L43.8304 82.2892L53.4475 88.7992L63.0646 82.2892L72.6818 88.7992L82.2989 82.2892L88.7103 88.7992M40.6247 59.5043L50.2418 49.7393L40.6247 39.9744M85.5046 59.5043L75.8875 49.7393L85.5046 39.9744" stroke="#FE602F" stroke-width="5" stroke-linecap="round" stroke-linejoin="round"/>
</svg>
