<svg width="125" height="127" viewBox="0 0 125 127" fill="none" xmlns="http://www.w3.org/2000/svg">
<path d="M43.6951 48.74H43.7592M82.1636 48.74H82.2278M5.22656 61.7599C5.22656 69.454 6.71909 77.0728 9.61893 84.1812C12.5188 91.2897 16.7691 97.7486 22.1273 103.189C27.4855 108.63 33.8466 112.945 40.8475 115.89C47.8483 118.834 55.3517 120.35 62.9294 120.35C70.507 120.35 78.0105 118.834 85.0113 115.89C92.0121 112.945 98.3732 108.63 103.731 103.189C109.09 97.7486 113.34 91.2897 116.24 84.1812C119.14 77.0728 120.632 69.454 120.632 61.7599C120.632 54.0658 119.14 46.447 116.24 39.3386C113.34 32.2302 109.09 25.7713 103.731 20.3307C98.3732 14.8901 92.0121 10.5745 85.0113 7.63005C78.0105 4.68564 70.507 3.17017 62.9294 3.17017C55.3517 3.17017 47.8483 4.68564 40.8475 7.63005C33.8466 10.5745 27.4855 14.8901 22.1273 20.3307C16.7691 25.7713 12.5188 32.2302 9.61893 39.3386C6.71909 46.447 5.22656 54.0658 5.22656 61.7599Z" stroke="#FE602F" stroke-width="5" stroke-linecap="round" stroke-linejoin="round"/>
<path d="M46.9014 82.9176C48.9907 80.7524 51.4846 79.0323 54.2368 77.858C56.9891 76.6837 59.9445 76.0789 62.9299 76.0789C65.9153 76.0789 68.8707 76.6837 71.623 77.858C74.3753 79.0323 76.8691 80.7524 78.9585 82.9176" stroke="#FE602F" stroke-width="5" stroke-linecap="round" stroke-linejoin="round"/>
</svg>
