<svg width="126" height="127" viewBox="0 0 126 127" fill="none" xmlns="http://www.w3.org/2000/svg">
<path d="M43.7049 50.74H43.769M82.1734 50.74H82.2375M43.7049 83.2898H82.1734M5.23633 63.7599C5.23633 71.454 6.72885 79.0728 9.62869 86.1812C12.5285 93.2897 16.7789 99.7486 22.1371 105.189C27.4953 110.63 33.8564 114.945 40.8572 117.89C47.8581 120.834 55.3615 122.35 62.9391 122.35C70.5168 122.35 78.0202 120.834 85.021 117.89C92.0219 114.945 98.383 110.63 103.741 105.189C109.099 99.7486 113.35 93.2897 116.25 86.1812C119.149 79.0728 120.642 71.454 120.642 63.7599C120.642 56.0658 119.149 48.447 116.25 41.3386C113.35 34.2302 109.099 27.7713 103.741 22.3307C98.383 16.8901 92.0219 12.5745 85.021 9.63005C78.0202 6.68564 70.5168 5.17017 62.9391 5.17017C55.3615 5.17017 47.8581 6.68564 40.8572 9.63005C33.8564 12.5745 27.4953 16.8901 22.1371 22.3307C16.7789 27.7713 12.5285 34.2302 9.62869 41.3386C6.72885 48.447 5.23633 56.0658 5.23633 63.7599Z" stroke="#FAB437" stroke-width="5" stroke-linecap="round" stroke-linejoin="round"/>
</svg>
