<svg width="124" height="127" viewBox="0 0 124 127" fill="none" xmlns="http://www.w3.org/2000/svg">
<path d="M42.7166 49.74H42.7807M81.1851 49.74H81.2492M4.24805 62.7599C4.24805 70.454 5.74057 78.0728 8.64041 85.1812C11.5402 92.2897 15.7906 98.7486 21.1488 104.189C26.507 109.63 32.8681 113.945 39.8689 116.89C46.8698 119.834 54.3732 121.35 61.9509 121.35C69.5285 121.35 77.0319 119.834 84.0328 116.89C91.0336 113.945 97.3947 109.63 102.753 104.189C108.111 98.7486 112.361 92.2897 115.261 85.1812C118.161 78.0728 119.654 70.454 119.654 62.7599C119.654 55.0658 118.161 47.447 115.261 40.3386C112.361 33.2302 108.111 26.7713 102.753 21.3307C97.3947 15.8901 91.0336 11.5745 84.0328 8.63005C77.0319 5.68564 69.5285 4.17017 61.9509 4.17017C54.3732 4.17017 46.8698 5.68564 39.8689 8.63005C32.8681 11.5745 26.507 15.8901 21.1488 21.3307C15.7906 26.7713 11.5402 33.2302 8.64041 40.3386C5.74057 47.447 4.24805 55.0658 4.24805 62.7599Z" stroke="#A2BF00" stroke-width="5" stroke-linecap="round" stroke-linejoin="round"/>
<path d="M45.9219 82.29C48.0112 84.4552 50.5051 86.1754 53.2574 87.3497C56.0096 88.524 58.965 89.1288 61.9504 89.1288C64.9358 89.1288 67.8912 88.524 70.6435 87.3497C73.3958 86.1754 75.8896 84.4552 77.979 82.29" stroke="#A2BF00" stroke-width="5" stroke-linecap="round" stroke-linejoin="round"/>
</svg>
