<svg width="125" height="129" viewBox="0 0 125 129" fill="none" xmlns="http://www.w3.org/2000/svg">
<path d="M114.49 63.1752C114.49 51.6331 111.13 40.3631 104.855 30.8555C98.5794 21.3479 89.6845 14.0507 79.3465 9.92901C69.0084 5.80727 57.7141 5.05516 46.9573 7.77213C36.2005 10.4891 26.4879 16.5472 19.104 25.1451C11.7201 33.7431 7.01275 44.4759 5.60451 55.9242C4.19626 67.3725 6.15346 78.9969 11.2173 89.2601C16.2811 99.5232 24.2129 107.942 33.9638 113.402C43.7148 118.863 54.8254 121.108 65.8263 119.841M41.6036 50.5069H41.6643M78.047 50.5069H78.1077" stroke="#A2BF00" stroke-width="5" stroke-linecap="round" stroke-linejoin="round"/>
<path d="M44.6406 82.1775C46.8642 84.4058 49.5157 86.1169 52.4201 87.1978C55.3244 88.2788 58.4157 88.705 61.4896 88.4483M102.306 123.35L117.6 107.007C119.498 104.957 120.561 102.22 120.566 99.3704C120.57 96.5206 119.516 93.7798 117.625 91.7231C116.705 90.7206 115.6 89.9222 114.377 89.3757C113.153 88.8293 111.837 88.5461 110.506 88.5432C109.176 88.5402 107.858 88.8175 106.633 89.3585C105.407 89.8995 104.299 90.693 103.375 91.6914L102.355 92.7809L101.334 91.6914C100.414 90.6893 99.3088 89.8914 98.0855 89.3455C96.8621 88.7996 95.5456 88.517 94.2149 88.5147C92.8842 88.5123 91.5668 88.7902 90.3416 89.3317C89.1165 89.8733 88.0088 90.6672 87.085 91.6661C85.1888 93.7159 84.1271 96.4517 84.1225 99.3C84.118 102.148 85.171 104.888 87.0607 106.944L102.306 123.35Z" stroke="#A2BF00" stroke-width="5" stroke-linecap="round" stroke-linejoin="round"/>
</svg>
