<svg width="20" height="29" viewBox="0 0 20 29" fill="none" xmlns="http://www.w3.org/2000/svg">
<path d="M18.8342 25.3252L5.84882 14.4925L18.8364 3.6605C18.8365 3.66048 18.8365 3.66045 18.8365 3.66043C19.0405 3.49041 19.2078 3.28375 19.3218 3.04844C19.4361 2.81234 19.4927 2.55522 19.4833 2.29344C19.4739 2.03177 19.3991 1.77917 19.2694 1.55098C19.1401 1.32347 18.96 1.12669 18.7463 0.967599C18.5327 0.808578 18.2872 0.688385 18.0256 0.609776C17.7639 0.531135 17.4876 0.494513 17.2116 0.500664C16.9356 0.506815 16.6616 0.555698 16.4048 0.646303C16.148 0.736872 15.9097 0.868679 15.7059 1.03858L15.7058 1.03867L1.14808 13.1814C0.750722 13.5125 0.5 13.9782 0.5 14.4924C0.5 15.0067 0.750723 15.4724 1.14808 15.8035L15.7033 27.9454C15.9057 28.1184 16.1434 28.2531 16.4002 28.3463C16.6583 28.4399 16.9342 28.4912 17.2125 28.499C17.4908 28.5067 17.7698 28.471 18.034 28.3925C18.2982 28.314 18.5461 28.1932 18.7616 28.0329C18.9772 27.8726 19.1586 27.6738 19.2882 27.4439C19.4182 27.2133 19.4921 26.958 19.4994 26.694C19.5067 26.4299 19.4469 26.1711 19.3288 25.9343C19.2116 25.6993 19.041 25.4936 18.8342 25.3252Z" fill="white" stroke="white"/>
</svg>
