<svg width="24" height="24" viewBox="0 0 24 24" fill="none" xmlns="http://www.w3.org/2000/svg">
<path d="M3.625 16C3.625 15.1716 2.95343 14.5 2.125 14.5C1.29657 14.5 0.625 15.1716 0.625 16H3.625ZM23.375 16C23.375 15.1716 22.7034 14.5 21.875 14.5C21.0466 14.5 20.375 15.1716 20.375 16H23.375ZM18.8042 10.4365C19.4135 9.87518 19.4524 8.92623 18.891 8.31696C18.3297 7.7077 17.3808 7.66884 16.7715 8.23017L18.8042 10.4365ZM11.9991 14.6667L10.9827 15.7699C11.557 16.299 12.4412 16.299 13.0154 15.7699L11.9991 14.6667ZM7.22665 8.23017C6.61739 7.66884 5.66844 7.7077 5.10711 8.31696C4.54578 8.92623 4.58464 9.87518 5.1939 10.4365L7.22665 8.23017ZM10.1584 13.3334C10.1584 14.1618 10.8299 14.8334 11.6584 14.8334C12.4868 14.8334 13.1584 14.1618 13.1584 13.3334H10.1584ZM13.1584 2C13.1584 1.17157 12.4868 0.5 11.6584 0.5C10.8299 0.5 10.1584 1.17157 10.1584 2H13.1584ZM0.625 16V20H3.625V16H0.625ZM0.625 20C0.625 22.0564 2.41808 23.5 4.31944 23.5V20.5C4.08952 20.5 3.90131 20.4144 3.78002 20.3039C3.66054 20.195 3.625 20.0846 3.625 20H0.625ZM4.31944 23.5H19.6806V20.5H4.31944V23.5ZM19.6806 23.5C21.5869 23.5 23.375 22.061 23.375 20H20.375C20.375 20.0904 20.3379 20.1999 20.2219 20.3056C20.1035 20.4134 19.9162 20.5 19.6806 20.5V23.5ZM23.375 20V16H20.375V20H23.375ZM16.7715 8.23017L10.9827 13.5635L13.0154 15.7699L18.8042 10.4365L16.7715 8.23017ZM13.0154 13.5635L7.22665 8.23017L5.1939 10.4365L10.9827 15.7699L13.0154 13.5635ZM13.1584 13.3334V2H10.1584V13.3334H13.1584Z" fill="white"/>
</svg>
