<svg width="688" height="186" viewBox="0 0 688 186" fill="none" xmlns="http://www.w3.org/2000/svg">
<path d="M1.12 45V35.816H3.92V10.616H1.12V1.432H24.752V10.616H19.6V35.816H24.64V30.664H35.784V45H1.12ZM37.7059 45V35.816H40.5059V10.616H37.7059V1.432H75.5059V18.344H62.9619V10.616H56.1859V19.464H61.1139V25.848H56.1859V35.816H62.9619V26.968H75.5059V45H37.7059ZM119.404 14.984H109.772V10.616H106.188V35.816H110.108V45H86.5878V35.816H90.5078V10.616H86.9238V14.984H77.2918V1.432H119.404V14.984ZM122.443 14.312L121.603 1.432H129.611L128.771 14.312H122.443ZM149.511 45.784C145.927 45.784 142.53 45.4853 139.319 44.888C136.146 44.2533 133.701 43.544 131.983 42.76V31.672H144.303C144.303 32.8293 144.565 33.6693 145.087 34.192C145.61 34.7147 146.562 34.976 147.943 34.976C149.101 34.976 149.922 34.808 150.407 34.472C150.93 34.0987 151.191 33.5573 151.191 32.848C151.191 32.2507 150.949 31.7467 150.463 31.336C149.978 30.888 149.138 30.44 147.943 29.992L143.127 28.312C138.983 26.744 135.997 24.896 134.167 22.768C132.375 20.64 131.479 17.7653 131.479 14.144C131.479 9.73867 132.917 6.39733 135.791 4.12C138.703 1.80533 143.538 0.647997 150.295 0.647997C153.543 0.647997 156.586 0.983997 159.423 1.656C162.298 2.29066 164.613 3.14933 166.367 4.232V14.256H155.167C155.167 12.3893 154.01 11.456 151.695 11.456C150.575 11.456 149.773 11.6053 149.287 11.904C148.839 12.1653 148.615 12.6507 148.615 13.36C148.615 13.9947 148.877 14.4987 149.399 14.872C149.959 15.2453 150.855 15.6373 152.087 16.048L156.959 17.728C160.917 19.072 163.791 20.8267 165.583 22.992C167.413 25.12 168.327 27.92 168.327 31.392C168.327 36.1333 166.722 39.7173 163.511 42.144C160.338 44.5707 155.671 45.784 149.511 45.784ZM186.675 45V35.816H189.475V10.616H186.675V1.432H224.475V18.344H211.931V10.616H205.155V19.464H210.083V25.848H205.155V35.816H211.931V26.968H224.475V45H186.675ZM267.141 35.816H269.493V45H248.325V35.816H250.621L247.373 31.224H246.813L243.565 35.816H245.861V45H226.261V35.816H229.173L239.925 23.72L228.725 10.616H226.373V1.432H247.373V10.616H245.245L248.325 15.208H248.885L251.965 10.616H249.837V1.432H269.269V10.616H266.357L255.773 22.544L267.141 35.816ZM271.386 35.816H274.186V10.616H271.386V1.432H295.97C300.786 1.432 304.463 2.47733 307.002 4.568C309.54 6.62133 310.81 9.96266 310.81 14.592C310.81 19.2213 309.54 22.5813 307.002 24.672C304.463 26.7253 300.786 27.752 295.97 27.752H289.866V35.816H295.242V45H271.386V35.816ZM291.77 19.8C293.935 19.8 295.018 18.6053 295.018 16.216V14.2C295.018 12.968 294.738 12.072 294.178 11.512C293.655 10.9147 292.852 10.616 291.77 10.616H289.866V19.8H291.77ZM312.729 45V35.816H315.529V10.616H312.729V1.432H336.361V10.616H331.209V35.816H336.249V30.664H347.393V45H312.729ZM370.371 45.784C363.539 45.784 358.257 43.992 354.523 40.408C350.827 36.824 348.979 31.0933 348.979 23.216C348.979 15.3387 350.827 9.608 354.523 6.024C358.257 2.44 363.539 0.647997 370.371 0.647997C377.203 0.647997 382.467 2.44 386.163 6.024C389.897 9.608 391.763 15.3387 391.763 23.216C391.763 31.0933 389.897 36.824 386.163 40.408C382.467 43.992 377.203 45.784 370.371 45.784ZM370.371 35.816C371.641 35.816 372.593 35.48 373.227 34.808C373.862 34.136 374.179 33.0907 374.179 31.672V14.76C374.179 13.3413 373.862 12.296 373.227 11.624C372.593 10.952 371.641 10.616 370.371 10.616C369.102 10.616 368.15 10.952 367.515 11.624C366.881 12.296 366.563 13.3413 366.563 14.76V31.672C366.563 33.128 366.881 34.192 367.515 34.864C368.15 35.4987 369.102 35.816 370.371 35.816ZM393.667 35.816H396.467V10.616H393.667V1.432H419.371C424.187 1.432 427.864 2.42133 430.403 4.4C432.942 6.37866 434.211 9.58933 434.211 14.032C434.211 16.5333 433.707 18.6987 432.699 20.528C431.691 22.3573 430.254 23.6267 428.387 24.336L428.443 24.896C432.027 25.456 433.819 27.6587 433.819 31.504V35.816H436.451V45H418.699V31.84C418.699 30.384 418.475 29.2827 418.027 28.536C417.616 27.7893 416.944 27.2853 416.011 27.024C415.115 26.7627 413.827 26.632 412.147 26.632V35.816H415.843V45H393.667V35.816ZM415.171 19.8C416.254 19.8 417.056 19.52 417.579 18.96C418.139 18.3627 418.419 17.448 418.419 16.216V14.2C418.419 12.968 418.139 12.072 417.579 11.512C417.056 10.9147 416.254 10.616 415.171 10.616H412.147V19.8H415.171ZM438.456 45V35.816H441.256V10.616H438.456V1.432H476.256V18.344H463.712V10.616H456.936V19.464H461.864V25.848H456.936V35.816H463.712V26.968H476.256V45H438.456ZM42.896 84.984H33.264V80.616H29.68V105.816H33.6V115H10.08V105.816H14V80.616H10.416V84.984H0.784V71.432H42.896V84.984ZM89.6153 80.616H86.8153V105.816H89.6153V115H68.4473V105.816H71.1353V96.576H63.2953V105.816H65.9833V115H44.8153V105.816H47.6153V80.616H44.8153V71.432H65.9833V80.616H63.2953V89.128H71.1353V80.616H68.4473V71.432H89.6153V80.616ZM91.8466 115V105.816H94.6466V80.616H91.8466V71.432H129.647V88.344H117.103V80.616H110.327V89.464H115.255V95.848H110.327V105.816H117.103V96.968H129.647V115H91.8466ZM196.438 71.432H214.358V80.616H212.118L203.774 115H187.03L181.934 90.808H181.374L175.998 115H159.254L150.35 80.616H148.11V71.432H168.83V80.616H166.702L168.886 94.896H169.446L174.766 71.432H190.894L195.822 94.896H196.382L198.566 80.616H196.438V71.432ZM236.114 115.784C229.282 115.784 223.999 113.992 220.266 110.408C216.57 106.824 214.722 101.093 214.722 93.216C214.722 85.3387 216.57 79.608 220.266 76.024C223.999 72.44 229.282 70.648 236.114 70.648C242.946 70.648 248.21 72.44 251.906 76.024C255.639 79.608 257.506 85.3387 257.506 93.216C257.506 101.093 255.639 106.824 251.906 110.408C248.21 113.992 242.946 115.784 236.114 115.784ZM236.114 105.816C237.383 105.816 238.335 105.48 238.97 104.808C239.604 104.136 239.922 103.091 239.922 101.672V84.76C239.922 83.3413 239.604 82.296 238.97 81.624C238.335 80.952 237.383 80.616 236.114 80.616C234.844 80.616 233.892 80.952 233.258 81.624C232.623 82.296 232.306 83.3413 232.306 84.76V101.672C232.306 103.128 232.623 104.192 233.258 104.864C233.892 105.499 234.844 105.816 236.114 105.816ZM259.409 105.816H262.209V80.616H259.409V71.432H285.113C289.929 71.432 293.606 72.4213 296.145 74.4C298.684 76.3787 299.953 79.5893 299.953 84.032C299.953 86.5333 299.449 88.6987 298.441 90.528C297.433 92.3573 295.996 93.6267 294.129 94.336L294.185 94.896C297.769 95.456 299.561 97.6587 299.561 101.504V105.816H302.193V115H284.441V101.84C284.441 100.384 284.217 99.2827 283.769 98.536C283.358 97.7893 282.686 97.2853 281.753 97.024C280.857 96.7627 279.569 96.632 277.889 96.632V105.816H281.585V115H259.409V105.816ZM280.913 89.8C281.996 89.8 282.798 89.52 283.321 88.96C283.881 88.3627 284.161 87.448 284.161 86.216V84.2C284.161 82.968 283.881 82.072 283.321 81.512C282.798 80.9147 281.996 80.616 280.913 80.616H277.889V89.8H280.913ZM304.198 115V105.816H306.998V80.616H304.198V71.432H327.83V80.616H322.678V105.816H327.718V100.664H338.862V115H304.198ZM340.784 105.816H343.584V80.672H340.784V71.432H363.52C369.755 71.432 374.701 73.1493 378.36 76.584C382.056 79.9813 383.904 85.5253 383.904 93.216C383.904 100.907 382.056 106.469 378.36 109.904C374.701 113.301 369.755 115 363.52 115H340.784V105.816ZM362.512 105.816C363.781 105.816 364.733 105.48 365.368 104.808C366.003 104.136 366.32 103.091 366.32 101.672V84.76C366.32 81.9973 365.051 80.616 362.512 80.616H359.264V105.816H362.512ZM423.637 115.784C416.805 115.784 411.522 113.992 407.789 110.408C404.093 106.824 402.245 101.093 402.245 93.216C402.245 85.3387 404.093 79.608 407.789 76.024C411.522 72.44 416.805 70.648 423.637 70.648C430.469 70.648 435.733 72.44 439.429 76.024C443.162 79.608 445.029 85.3387 445.029 93.216C445.029 101.093 443.162 106.824 439.429 110.408C435.733 113.992 430.469 115.784 423.637 115.784ZM423.637 105.816C424.906 105.816 425.858 105.48 426.493 104.808C427.128 104.136 427.445 103.091 427.445 101.672V84.76C427.445 83.3413 427.128 82.296 426.493 81.624C425.858 80.952 424.906 80.616 423.637 80.616C422.368 80.616 421.416 80.952 420.781 81.624C420.146 82.296 419.829 83.3413 419.829 84.76V101.672C419.829 103.128 420.146 104.192 420.781 104.864C421.416 105.499 422.368 105.816 423.637 105.816ZM446.933 115V105.816H449.733V80.616H446.933V71.432H480.421V85.936H470.509V80.616H465.413V89.912H473.869V96.296H465.413V105.816H472.749V115H446.933Z" fill="#100F14"/>
<path d="M1.12 185V175.816H3.92V150.616H1.12V141.432H34.608V155.936H24.696V150.616H19.6V159.912H28.056V166.296H19.6V175.816H26.936V185H1.12ZM36.5028 185V175.816H39.3028V150.616H36.5028V141.432H57.7828V150.616H54.9828V175.816H57.7828V185H36.5028ZM92.2744 141.432H110.642V150.616H107.842V185H92.1064L75.6984 159.744V175.816H78.3864V185H60.0184V175.816H62.8184V150.616H60.0184V141.432H80.2344L94.9624 163.888V150.616H92.2744V141.432ZM153.896 175.816H156.136V185H134.184V175.816H137.544L136.648 171.336H129.032L128.136 175.816H131.496V185H112.344V175.816H114.584L124.048 141.432H144.432L153.896 175.816ZM130.264 165.4H135.416L133.12 154.256H132.56L130.264 165.4ZM190.165 141.432H208.533V150.616H205.733V185H189.997L173.589 159.744V175.816H176.277V185H157.909V175.816H160.709V150.616H157.909V141.432H178.125L192.853 163.888V150.616H190.165V141.432ZM232.411 185.784C225.355 185.784 219.904 183.992 216.059 180.408C212.251 176.824 210.347 171.093 210.347 163.216C210.347 148.171 217.664 140.648 232.299 140.648C235.845 140.648 239.131 141.077 242.155 141.936C245.216 142.795 247.493 143.747 248.987 144.792V158.792H235.547V154.76C235.547 153.341 235.229 152.296 234.595 151.624C233.96 150.952 233.008 150.616 231.739 150.616C230.469 150.616 229.517 150.952 228.883 151.624C228.248 152.296 227.931 153.341 227.931 154.76V171.672C227.931 173.091 228.248 174.136 228.883 174.808C229.517 175.48 230.469 175.816 231.739 175.816C233.008 175.816 233.96 175.48 234.595 174.808C235.229 174.136 235.547 173.091 235.547 171.672V167.136H248.987V181.64C247.456 182.685 245.179 183.637 242.155 184.496C239.168 185.355 235.92 185.784 232.411 185.784ZM251.097 185V175.816H253.897V150.616H251.097V141.432H272.377V150.616H269.577V175.816H272.377V185H251.097ZM315.716 175.816H317.956V185H296.004V175.816H299.364L298.468 171.336H290.852L289.956 175.816H293.316V185H274.164V175.816H276.404L285.868 141.432H306.252L315.716 175.816ZM292.084 165.4H297.236L294.94 154.256H294.38L292.084 165.4ZM319.729 185V175.816H322.529V150.616H319.729V141.432H343.361V150.616H338.209V175.816H343.249V170.664H354.393V185H319.729Z" fill="#FE602F"/>
<path d="M373.104 185V175.816H375.904V150.616H373.104V141.432H396.736V150.616H391.584V175.816H396.624V170.664H407.768V185H373.104ZM409.69 185V175.816H412.49V150.616H409.69V141.432H430.97V150.616H428.17V175.816H430.97V185H409.69ZM474.982 154.984H465.35V150.616H461.766V175.816H465.686V185H442.166V175.816H446.086V150.616H442.502V154.984H432.87V141.432H474.982V154.984ZM476.901 185V175.816H479.701V150.616H476.901V141.432H514.701V158.344H502.157V150.616H495.381V159.464H500.309V165.848H495.381V175.816H502.157V166.968H514.701V185H476.901ZM516.823 175.816H519.623V150.616H516.823V141.432H542.527C547.343 141.432 551.02 142.421 553.559 144.4C556.098 146.379 557.367 149.589 557.367 154.032C557.367 156.533 556.863 158.699 555.855 160.528C554.847 162.357 553.41 163.627 551.543 164.336L551.599 164.896C555.183 165.456 556.975 167.659 556.975 171.504V175.816H559.607V185H541.855V171.84C541.855 170.384 541.631 169.283 541.183 168.536C540.772 167.789 540.1 167.285 539.167 167.024C538.271 166.763 536.983 166.632 535.303 166.632V175.816H538.999V185H516.823V175.816ZM538.327 159.8C539.41 159.8 540.212 159.52 540.735 158.96C541.295 158.363 541.575 157.448 541.575 156.216V154.2C541.575 152.968 541.295 152.072 540.735 151.512C540.212 150.915 539.41 150.616 538.327 150.616H535.303V159.8H538.327ZM602.716 175.816H604.956V185H583.004V175.816H586.364L585.468 171.336H577.852L576.956 175.816H580.316V185H561.164V175.816H563.404L572.868 141.432H593.252L602.716 175.816ZM579.084 165.4H584.236L581.94 154.256H581.38L579.084 165.4ZM626.762 185.784C619.706 185.784 614.255 183.992 610.41 180.408C606.602 176.824 604.698 171.093 604.698 163.216C604.698 148.171 612.015 140.648 626.65 140.648C630.197 140.648 633.482 141.077 636.506 141.936C639.567 142.795 641.845 143.747 643.338 144.792V158.792H629.898V154.76C629.898 153.341 629.581 152.296 628.946 151.624C628.311 150.952 627.359 150.616 626.09 150.616C624.821 150.616 623.869 150.952 623.234 151.624C622.599 152.296 622.282 153.341 622.282 154.76V171.672C622.282 173.091 622.599 174.136 623.234 174.808C623.869 175.48 624.821 175.816 626.09 175.816C627.359 175.816 628.311 175.48 628.946 174.808C629.581 174.136 629.898 173.091 629.898 171.672V167.136H643.338V181.64C641.807 182.685 639.53 183.637 636.506 184.496C633.519 185.355 630.271 185.784 626.762 185.784ZM669.92 141.432H687.112V150.616H684.872L674.064 169.992V175.816H676.864V185H655.584V175.816H658.384V169.992L647.24 150.616H645V141.432H666.672V150.616H664.712L668.016 159.296H668.576L671.88 150.616H669.92V141.432Z" fill="#A2BF00"/>
</svg>
