<svg width="37" height="36" viewBox="0 0 37 36" fill="none" xmlns="http://www.w3.org/2000/svg">
<path d="M36.6956 18.2096C36.6956 8.59905 28.4817 0.809326 18.3478 0.809326C8.21391 0.809326 0 8.59905 0 18.2096C0 26.8948 6.7095 34.0934 15.481 35.3979V23.2382H10.823V18.2071H15.481V14.3734C15.481 10.0133 18.2189 7.60382 22.4114 7.60382C24.4182 7.60382 26.5197 7.94305 26.5197 7.94305V12.2258H24.2051C21.9248 12.2258 21.2146 13.5677 21.2146 14.9421V18.2071H26.304L25.4912 23.2382H21.2173V35.3979C29.9888 34.0934 36.6983 26.8948 36.6983 18.2096H36.6956Z" fill="white"/>
<path d="M25.489 23.2405L26.3017 18.2095H21.2125V14.9445C21.2125 13.5676 21.9226 12.2282 24.2029 12.2282H26.5174V7.94543C26.5174 7.94543 24.4185 7.6062 22.4091 7.6062C18.2167 7.6062 15.4788 10.0157 15.4788 14.3758V18.2095H10.8208V23.2405H15.4788V35.4003C16.4125 35.54 17.3698 35.6123 18.3456 35.6123C19.3214 35.6123 20.2788 35.54 21.2125 35.4003V23.2405H25.4864H25.489Z" fill="url(#paint0_linear_189_706)"/>
<defs>
<linearGradient id="paint0_linear_189_706" x1="18.6691" y1="7.6062" x2="18.6691" y2="35.6123" gradientUnits="userSpaceOnUse">
<stop offset="0.255082" stop-color="#FE8863" stop-opacity="0.94"/>
<stop offset="0.5501" stop-color="#7FCA44" stop-opacity="0.73"/>
<stop offset="0.940124" stop-color="#86D521" stop-opacity="0.65"/>
</linearGradient>
</defs>
</svg>
