<svg width="28" height="29" viewBox="0 0 28 29" fill="none" xmlns="http://www.w3.org/2000/svg">
<path d="M25.4398 11.7328H24.5V11.6844H14V16.3511H20.5935C19.6315 19.0677 17.0468 21.0177 14 21.0177C10.1343 21.0177 7.00004 17.8835 7.00004 14.0177C7.00004 10.152 10.1343 7.01774 14 7.01774C15.7845 7.01774 17.4079 7.69091 18.644 8.79049L21.9439 5.49057C19.8602 3.54866 17.073 2.35107 14 2.35107C7.55712 2.35107 2.33337 7.57482 2.33337 14.0177C2.33337 20.4607 7.55712 25.6844 14 25.6844C20.443 25.6844 25.6667 20.4607 25.6667 14.0177C25.6667 13.2355 25.5862 12.4719 25.4398 11.7328Z" fill="#FFC107"/>
<path d="M3.67847 8.58749L7.51155 11.3986C8.54872 8.83074 11.0606 7.01774 14 7.01774C15.7844 7.01774 17.4078 7.69091 18.6439 8.79049L21.9438 5.49057C19.8601 3.54866 17.073 2.35107 14 2.35107C9.5188 2.35107 5.63263 4.88099 3.67847 8.58749Z" fill="#FF3D00"/>
<path d="M14 25.6842C17.0135 25.6842 19.7517 24.5309 21.8219 22.6555L18.2111 19.6C17.0004 20.5207 15.521 21.0187 14 21.0175C10.9655 21.0175 8.38894 19.0826 7.41827 16.3823L3.61377 19.3136C5.5446 23.0918 9.46577 25.6842 14 25.6842Z" fill="#4CAF50"/>
<path d="M25.4398 11.7325H24.5V11.6841H14V16.3507H20.5934C20.1333 17.6437 19.3045 18.7734 18.2093 19.6005L18.2111 19.5993L21.8219 22.6548C21.5664 22.887 25.6667 19.8507 25.6667 14.0174C25.6667 13.2352 25.5862 12.4716 25.4398 11.7325Z" fill="#1976D2"/>
</svg>
