<svg width="22" height="18" viewBox="0 0 22 18" fill="none" xmlns="http://www.w3.org/2000/svg">
<path d="M3.53033 0.487246C3.23744 0.194356 2.76256 0.194356 2.46967 0.487246C2.17678 0.780136 2.17678 1.25502 2.46967 1.54791L3.53033 0.487246ZM18.4697 17.5479C18.7626 17.8408 19.2374 17.8408 19.5303 17.5479C19.8232 17.255 19.8232 16.7802 19.5303 16.4873L18.4697 17.5479ZM13.5002 11.8126C13.8088 11.5363 13.8351 11.0622 13.5589 10.7535C13.2826 10.4449 12.8085 10.4186 12.4998 10.6949L13.5002 11.8126ZM9.3227 7.51778C9.599 7.20908 9.5727 6.73497 9.2641 6.45873C8.95543 6.18248 8.48129 6.20875 8.20504 6.51739L9.3227 7.51778ZM18.1153 12.0597C17.8029 12.3316 17.7701 12.8054 18.0421 13.1178C18.3141 13.4302 18.7878 13.4629 19.1002 13.191L18.1153 12.0597ZM8.18831 1.71457C7.79307 1.8385 7.57313 2.25937 7.69705 2.65461C7.82098 3.04985 8.24185 3.26979 8.63709 3.14587L8.18831 1.71457ZM5.90354 4.45314C6.25269 4.23027 6.35505 3.76656 6.13218 3.41742C5.90931 3.06828 5.4456 2.96591 5.09646 3.18878L5.90354 4.45314ZM16.5515 15.0647C16.9064 14.8511 17.021 14.3903 16.8075 14.0353C16.5939 13.6804 16.1331 13.5658 15.7782 13.7794L16.5515 15.0647ZM2.46967 1.54791L18.4697 17.5479L19.5303 16.4873L3.53033 0.487246L2.46967 1.54791ZM7.25 9.01758C7.25 11.0887 8.92893 12.7676 11 12.7676V11.2676C9.7574 11.2676 8.75 10.2602 8.75 9.01758H7.25ZM11 12.7676C11.96 12.7676 12.8372 12.4059 13.5002 11.8126L12.4998 10.6949C12.1012 11.0516 11.5767 11.2676 11 11.2676V12.7676ZM8.20504 6.51739C7.61169 7.18038 7.25 8.05758 7.25 9.01758H8.75C8.75 8.44088 8.96602 7.91638 9.3227 7.51778L8.20504 6.51739ZM1.32608 11.6812C3.2977 13.7556 6.84898 16.7676 11 16.7676V15.2676C7.51999 15.2676 4.35328 12.6889 2.41334 10.6478L1.32608 11.6812ZM20.6739 6.35399C18.7023 4.27956 15.151 1.26758 11 1.26758V2.76758C14.48 2.76758 17.6467 5.34627 19.5867 7.38738L20.6739 6.35399ZM20.6739 11.6812C22.1087 10.1716 22.1087 7.86358 20.6739 6.35399L19.5867 7.38738C20.4711 8.31798 20.4711 9.71718 19.5867 10.6478L20.6739 11.6812ZM2.41334 10.6478C1.52889 9.71718 1.52889 8.31798 2.41334 7.38738L1.32608 6.35399C-0.108693 7.86358 -0.108694 10.1716 1.32608 11.6812L2.41334 10.6478ZM19.1002 13.191C19.6921 12.6757 20.2202 12.1585 20.6739 11.6812L19.5867 10.6478C19.1602 11.0965 18.6662 11.58 18.1153 12.0597L19.1002 13.191ZM11 1.26758C10.0225 1.26758 9.0801 1.43494 8.18831 1.71457L8.63709 3.14587C9.4042 2.90534 10.1948 2.76758 11 2.76758V1.26758ZM5.09646 3.18878C3.57051 4.16285 2.28015 5.35017 1.32608 6.35399L2.41334 7.38738C3.31512 6.43856 4.51237 5.34118 5.90354 4.45314L5.09646 3.18878ZM11 16.7676C13.0476 16.7676 14.9403 16.0341 16.5515 15.0647L15.7782 13.7794C14.3131 14.6609 12.6886 15.2676 11 15.2676V16.7676Z" fill="#49475A"/>
</svg>
