<svg width="38" height="36" viewBox="0 0 38 36" fill="none" xmlns="http://www.w3.org/2000/svg">
<path d="M19.2241 35.6125C29.5937 35.6125 38 27.6404 38 17.8062C38 7.97213 29.5937 0 19.2241 0C8.85449 0 0.448242 7.97213 0.448242 17.8062C0.448242 27.6404 8.85449 35.6125 19.2241 35.6125Z" fill="white"/>
<path d="M25.0516 11.0698C24.3384 11.0698 23.7598 11.6186 23.7598 12.295C23.7598 12.9714 24.3384 13.5202 25.0516 13.5202C25.7649 13.5202 26.3436 12.9714 26.3436 12.295C26.3436 11.6186 25.7649 11.0698 25.0516 11.0698Z" fill="url(#paint0_linear_189_700)"/>
<path d="M19.3133 12.6396C16.323 12.6396 13.8926 14.9471 13.8926 17.7804C13.8926 20.6137 16.3257 22.9211 19.3133 22.9211C22.3008 22.9211 24.7339 20.6137 24.7339 17.7804C24.7339 14.9471 22.3008 12.6396 19.3133 12.6396ZM19.3133 21.0757C17.3969 21.0757 15.8412 19.5978 15.8412 17.7829C15.8412 15.9681 17.3996 14.4902 19.3133 14.4902C21.2269 14.4902 22.7853 15.9681 22.7853 17.7829C22.7853 19.5978 21.2269 21.0757 19.3133 21.0757Z" fill="url(#paint1_linear_189_700)"/>
<path d="M23.6168 28.22H14.8263C11.1794 28.22 8.21338 25.4072 8.21338 21.9485V13.6121C8.21338 10.1534 11.1794 7.34058 14.8263 7.34058H23.6168C27.2638 7.34058 30.2298 10.1534 30.2298 13.6121V21.9485C30.2298 25.4072 27.2638 28.22 23.6168 28.22V28.22ZM14.8263 9.306C12.3232 9.306 10.2858 11.2382 10.2858 13.6121V21.9485C10.2858 24.3224 12.3232 26.2546 14.8263 26.2546H23.6168C26.1199 26.2546 28.1573 24.3224 28.1573 21.9485V13.6121C28.1573 11.2357 26.1199 9.306 23.6168 9.306H14.8263Z" fill="url(#paint2_linear_189_700)"/>
<defs>
<linearGradient id="paint0_linear_189_700" x1="25.0517" y1="11.0698" x2="25.0517" y2="13.5202" gradientUnits="userSpaceOnUse">
<stop offset="0.255082" stop-color="#FE8863" stop-opacity="0.94"/>
<stop offset="0.5501" stop-color="#7FCA44" stop-opacity="0.73"/>
<stop offset="0.940124" stop-color="#86D521" stop-opacity="0.65"/>
</linearGradient>
<linearGradient id="paint1_linear_189_700" x1="19.3133" y1="12.6396" x2="19.3133" y2="22.9211" gradientUnits="userSpaceOnUse">
<stop offset="0.255082" stop-color="#FE8863" stop-opacity="0.94"/>
<stop offset="0.5501" stop-color="#7FCA44" stop-opacity="0.73"/>
<stop offset="0.940124" stop-color="#86D521" stop-opacity="0.65"/>
</linearGradient>
<linearGradient id="paint2_linear_189_700" x1="19.2216" y1="7.34058" x2="19.2216" y2="28.22" gradientUnits="userSpaceOnUse">
<stop offset="0.255082" stop-color="#FE8863" stop-opacity="0.94"/>
<stop offset="0.5501" stop-color="#7FCA44" stop-opacity="0.73"/>
<stop offset="0.940124" stop-color="#86D521" stop-opacity="0.65"/>
</linearGradient>
</defs>
</svg>
