<svg width="75" height="32" viewBox="0 0 75 32" fill="none" xmlns="http://www.w3.org/2000/svg">
<path d="M5.59663 18.776H12.7646V23H0.124625V0.535999H5.59663V18.776ZM23.5026 23.256C21.7533 23.256 20.1746 22.8827 18.7666 22.136C17.38 21.3893 16.2813 20.3227 15.4706 18.936C14.6813 17.5493 14.2866 15.928 14.2866 14.072C14.2866 12.2373 14.692 10.6267 15.5026 9.24C16.3133 7.832 17.4226 6.75467 18.8306 6.008C20.2386 5.26133 21.8173 4.888 23.5666 4.888C25.316 4.888 26.8946 5.26133 28.3026 6.008C29.7106 6.75467 30.82 7.832 31.6306 9.24C32.4413 10.6267 32.8466 12.2373 32.8466 14.072C32.8466 15.9067 32.4306 17.528 31.5986 18.936C30.788 20.3227 29.668 21.3893 28.2386 22.136C26.8306 22.8827 25.252 23.256 23.5026 23.256ZM23.5026 18.52C24.548 18.52 25.4333 18.136 26.1586 17.368C26.9053 16.6 27.2786 15.5013 27.2786 14.072C27.2786 12.6427 26.916 11.544 26.1906 10.776C25.4866 10.008 24.612 9.624 23.5666 9.624C22.5 9.624 21.6146 10.008 20.9106 10.776C20.2066 11.5227 19.8546 12.6213 19.8546 14.072C19.8546 15.5013 20.196 16.6 20.8786 17.368C21.5826 18.136 22.4573 18.52 23.5026 18.52ZM42.5336 4.888C43.7923 4.888 44.891 5.144 45.8296 5.656C46.7896 6.168 47.5256 6.84 48.0376 7.672V5.144H53.5096V22.968C53.5096 24.6107 53.179 26.0933 52.5176 27.416C51.8776 28.76 50.8856 29.8267 49.5416 30.616C48.219 31.4053 46.5656 31.8 44.5816 31.8C41.9363 31.8 39.7923 31.1707 38.1496 29.912C36.507 28.6747 35.5683 26.9893 35.3336 24.856H40.7416C40.9123 25.5387 41.3176 26.072 41.9576 26.456C42.5976 26.8613 43.387 27.064 44.3256 27.064C45.4563 27.064 46.3523 26.7333 47.0136 26.072C47.6963 25.432 48.0376 24.3973 48.0376 22.968V20.44C47.5043 21.272 46.7683 21.9547 45.8296 22.488C44.891 23 43.7923 23.256 42.5336 23.256C41.0616 23.256 39.7283 22.8827 38.5336 22.136C37.339 21.368 36.3896 20.2907 35.6856 18.904C35.003 17.496 34.6616 15.8747 34.6616 14.04C34.6616 12.2053 35.003 10.5947 35.6856 9.208C36.3896 7.82133 37.339 6.75467 38.5336 6.008C39.7283 5.26133 41.0616 4.888 42.5336 4.888ZM48.0376 14.072C48.0376 12.7067 47.6536 11.6293 46.8856 10.84C46.139 10.0507 45.2216 9.656 44.1336 9.656C43.0456 9.656 42.1176 10.0507 41.3496 10.84C40.603 11.608 40.2296 12.6747 40.2296 14.04C40.2296 15.4053 40.603 16.4933 41.3496 17.304C42.1176 18.0933 43.0456 18.488 44.1336 18.488C45.2216 18.488 46.139 18.0933 46.8856 17.304C47.6536 16.5147 48.0376 15.4373 48.0376 14.072ZM65.5964 23.256C63.847 23.256 62.2684 22.8827 60.8604 22.136C59.4737 21.3893 58.375 20.3227 57.5644 18.936C56.775 17.5493 56.3804 15.928 56.3804 14.072C56.3804 12.2373 56.7857 10.6267 57.5964 9.24C58.407 7.832 59.5164 6.75467 60.9244 6.008C62.3324 5.26133 63.911 4.888 65.6604 4.888C67.4097 4.888 68.9884 5.26133 70.3964 6.008C71.8044 6.75467 72.9137 7.832 73.7244 9.24C74.535 10.6267 74.9404 12.2373 74.9404 14.072C74.9404 15.9067 74.5244 17.528 73.6924 18.936C72.8817 20.3227 71.7617 21.3893 70.3324 22.136C68.9244 22.8827 67.3457 23.256 65.5964 23.256ZM65.5964 18.52C66.6417 18.52 67.527 18.136 68.2524 17.368C68.999 16.6 69.3724 15.5013 69.3724 14.072C69.3724 12.6427 69.0097 11.544 68.2844 10.776C67.5804 10.008 66.7057 9.624 65.6604 9.624C64.5937 9.624 63.7084 10.008 63.0044 10.776C62.3004 11.5227 61.9484 12.6213 61.9484 14.072C61.9484 15.5013 62.2897 16.6 62.9724 17.368C63.6764 18.136 64.551 18.52 65.5964 18.52Z" fill="#FE602F"/>
</svg>
