<svg width="24" height="24" viewBox="0 0 24 24" fill="none" xmlns="http://www.w3.org/2000/svg">
<path fill-rule="evenodd" clip-rule="evenodd" d="M20 11.4488C20 16.2514 16.0825 20.1447 11.25 20.1447C6.41751 20.1447 2.5 16.2514 2.5 11.4488C2.5 6.64617 6.41751 2.75286 11.25 2.75286C16.0825 2.75286 20 6.64617 20 11.4488ZM20.0399 18.4275C21.5794 16.5148 22.5 14.0887 22.5 11.4488C22.5 5.27398 17.4632 0.268311 11.25 0.268311C5.0368 0.268311 0 5.27398 0 11.4488C0 17.6236 5.0368 22.6293 11.25 22.6293C13.9063 22.6293 16.3475 21.7144 18.2721 20.1844L21.6161 23.5077C22.1043 23.9928 22.8957 23.9928 23.3839 23.5077C23.872 23.0226 23.872 22.236 23.3839 21.7509L20.0399 18.4275Z" fill="#FE8863"/>
</svg>
