<svg width="28" height="26" viewBox="0 0 28 26" fill="none" xmlns="http://www.w3.org/2000/svg">
<path d="M13.1033 3.17277C13.3914 2.60855 13.5355 2.32644 13.731 2.23631C13.9012 2.15788 14.0989 2.15788 14.269 2.23631C14.4646 2.32644 14.6086 2.60855 14.8967 3.17277L17.6301 8.52564C17.7151 8.69221 17.7577 8.7755 17.8198 8.84016C17.8748 8.89742 17.9408 8.94381 18.0141 8.97676C18.0969 9.01398 18.192 9.02741 18.3822 9.05428L24.4962 9.91815C25.1401 10.0091 25.462 10.0546 25.611 10.2066C25.7406 10.3389 25.8016 10.5206 25.7769 10.7012C25.7485 10.9088 25.5155 11.1283 25.0493 11.5671L20.6268 15.7311C20.4889 15.8609 20.42 15.9258 20.3755 16.003C20.3362 16.0714 20.3109 16.1465 20.3011 16.2242C20.2901 16.3119 20.3064 16.4036 20.3389 16.587L21.3824 22.4684C21.4925 23.0887 21.5475 23.3989 21.4441 23.5829C21.3541 23.7431 21.1942 23.8554 21.0088 23.8886C20.7958 23.9268 20.5076 23.7803 19.9314 23.4874L14.4655 20.7087C14.2952 20.6221 14.21 20.5789 14.1203 20.5619C14.0409 20.5468 13.9592 20.5468 13.8797 20.5619C13.79 20.5789 13.7049 20.6221 13.5346 20.7087L8.06865 23.4874C7.49239 23.7803 7.20426 23.9268 6.99121 23.8886C6.80585 23.8554 6.6459 23.7431 6.55592 23.5829C6.4525 23.3989 6.50753 23.0887 6.61759 22.4684L7.66111 16.587C7.69364 16.4036 7.70991 16.3119 7.6989 16.2242C7.68915 16.1465 7.66389 16.0714 7.62451 16.003C7.58003 15.9258 7.5111 15.8609 7.37323 15.7311L2.9507 11.5671C2.48458 11.1283 2.25152 10.9088 2.22316 10.7012C2.19848 10.5206 2.25944 10.3389 2.38906 10.2066C2.53804 10.0546 2.85996 10.0091 3.5038 9.91815L9.61789 9.05428C9.80803 9.02741 9.9031 9.01398 9.9859 8.97676C10.0592 8.94381 10.1252 8.89742 10.1802 8.84016C10.2424 8.7755 10.2849 8.69221 10.37 8.52564L13.1033 3.17277Z" fill="#FBBF24" stroke="#FBBF24" stroke-width="2.5" stroke-linecap="round" stroke-linejoin="round"/>
</svg>
