<svg width="37" height="35" viewBox="0 0 37 35" fill="none" xmlns="http://www.w3.org/2000/svg">
<path d="M18.502 0.938477C8.66657 0.938477 0.693359 8.42293 0.693359 17.6524C0.693359 26.8833 8.66657 34.365 18.502 34.365C28.3374 34.365 36.3092 26.8833 36.3092 17.6524C36.3092 8.42293 28.3367 0.938477 18.502 0.938477ZM27.4725 14.2825C27.4819 14.463 27.4855 14.6443 27.4855 14.8275C27.4855 20.3939 22.9713 26.8113 14.7168 26.8113C12.1827 26.8113 9.82295 26.1143 7.83706 24.9197C8.18854 24.9584 8.54507 24.9781 8.90739 24.9781C11.0104 24.9781 12.9457 24.3047 14.481 23.1753C12.5176 23.1407 10.8607 21.9224 10.2894 20.2493C10.5628 20.2995 10.8441 20.3246 11.1334 20.3246C11.5427 20.3246 11.939 20.2744 12.3158 20.1773C10.2619 19.7905 8.71502 18.0868 8.71502 16.0479C8.71502 16.0296 8.71502 16.0119 8.71574 15.9936C9.32033 16.3092 10.0124 16.4986 10.7486 16.521C9.5438 15.7642 8.7519 14.4766 8.7519 13.0146C8.7519 12.2429 8.9732 11.5187 9.35939 10.8969C11.5731 13.4449 14.8802 15.1221 18.6105 15.2972C18.5338 14.9897 18.494 14.6673 18.494 14.3375C18.494 12.0121 20.5031 10.1259 22.9822 10.1259C24.2731 10.1259 25.4389 10.6377 26.2575 11.4555C27.2801 11.2675 28.2405 10.9159 29.1076 10.4334C28.7713 11.4175 28.0604 12.2429 27.1333 12.7635C28.0424 12.6617 28.9073 12.435 29.7115 12.1003C29.1112 12.9467 28.3497 13.6886 27.4725 14.2825Z" fill="white"/>
</svg>
