<svg width="35" height="35" viewBox="0 0 35 35" fill="none" xmlns="http://www.w3.org/2000/svg">
<path d="M23.8582 20.4167C23.9748 19.4542 24.0623 18.4917 24.0623 17.5001C24.0623 16.5084 23.9748 15.5459 23.8582 14.5834H28.7873C29.0207 15.5167 29.1665 16.4938 29.1665 17.5001C29.1665 18.5063 29.0207 19.4834 28.7873 20.4167M21.2769 28.5251C22.1519 26.9063 22.8228 25.1563 23.2894 23.3334H27.5915C26.1786 25.7663 23.9371 27.6092 21.2769 28.5251ZM20.9123 20.4167H14.0873C13.9415 19.4542 13.854 18.4917 13.854 17.5001C13.854 16.5084 13.9415 15.5313 14.0873 14.5834H20.9123C21.0436 15.5313 21.1457 16.5084 21.1457 17.5001C21.1457 18.4917 21.0436 19.4542 20.9123 20.4167ZM17.4998 29.1084C16.2894 27.3584 15.3123 25.4188 14.7144 23.3334H20.2853C19.6873 25.4188 18.7103 27.3584 17.4998 29.1084ZM11.6665 11.6667H7.40817C8.8065 9.22727 11.0464 7.38142 13.7082 6.47508C12.8332 8.09383 12.1769 9.84383 11.6665 11.6667ZM7.40817 23.3334H11.6665C12.1769 25.1563 12.8332 26.9063 13.7082 28.5251C11.052 27.6088 8.81524 25.7655 7.40817 23.3334ZM6.21234 20.4167C5.979 19.4834 5.83317 18.5063 5.83317 17.5001C5.83317 16.4938 5.979 15.5167 6.21234 14.5834H11.1415C11.0248 15.5459 10.9373 16.5084 10.9373 17.5001C10.9373 18.4917 11.0248 19.4542 11.1415 20.4167M17.4998 5.87716C18.7103 7.62716 19.6873 9.58133 20.2853 11.6667H14.7144C15.3123 9.58133 16.2894 7.62716 17.4998 5.87716ZM27.5915 11.6667H23.2894C22.833 9.86054 22.1571 8.11701 21.2769 6.47508C23.9603 7.39383 26.1915 9.24591 27.5915 11.6667ZM17.4998 2.91675C9.43525 2.91675 2.9165 9.47925 2.9165 17.5001C2.9165 21.3678 4.45296 25.0771 7.18786 27.8121C8.54205 29.1662 10.1497 30.2404 11.919 30.9733C13.6884 31.7062 15.5847 32.0834 17.4998 32.0834C21.3676 32.0834 25.0769 30.547 27.8118 27.8121C30.5467 25.0771 32.0832 21.3678 32.0832 17.5001C32.0832 15.585 31.706 13.6886 30.9731 11.9193C30.2402 10.1499 29.166 8.54229 27.8118 7.18811C26.4576 5.83392 24.85 4.75972 23.0806 4.02684C21.3113 3.29396 19.4149 2.91675 17.4998 2.91675Z" fill="url(#paint0_linear_189_452)"/>
<defs>
<linearGradient id="paint0_linear_189_452" x1="17.4998" y1="2.91675" x2="17.4998" y2="32.0834" gradientUnits="userSpaceOnUse">
<stop stop-color="#FE8863"/>
<stop offset="0.404788" stop-color="#EF8A6A"/>
<stop offset="0.77481" stop-color="#A2BF00"/>
</linearGradient>
</defs>
</svg>
