<svg width="19" height="19" viewBox="0 0 19 19" fill="none" xmlns="http://www.w3.org/2000/svg">
<path d="M14.375 7.14004V10.8946C14.375 11.8563 14.375 12.3372 14.1967 12.758C14.138 12.8964 14.0656 13.0287 13.9806 13.1527C13.7221 13.5296 13.317 13.7887 12.5068 14.3067L11.6818 14.8343C10.7427 15.4347 10.2731 15.735 9.75546 15.7941C9.58571 15.8135 9.4143 15.8135 9.24455 15.7941C8.72688 15.735 8.25733 15.4347 7.31823 14.8343L6.49323 14.3067C5.68301 13.7887 5.2779 13.5296 5.01944 13.1527C4.93437 13.0287 4.86195 12.8964 4.80328 12.758C4.625 12.3372 4.625 11.8563 4.625 10.8946V7.14004M16.625 6.05076L11.1935 3.55054C10.4542 3.21024 10.0846 3.04009 9.69389 3.0063C9.56487 2.99514 9.43513 2.99514 9.30611 3.0063C8.91541 3.04009 8.54578 3.21024 7.80652 3.55054L2.375 6.05076L7.73523 8.64579C8.50429 9.01811 8.88882 9.20427 9.29739 9.24121C9.43219 9.2534 9.56782 9.2534 9.70262 9.24121C10.1112 9.20427 10.4957 9.01811 11.2648 8.64578L16.625 6.05076ZM16.625 6.05076V12.4231C16.625 13.3045 16.625 13.7452 16.472 14.1386C16.4215 14.2684 16.3592 14.3931 16.2856 14.5113C16.0627 14.8698 15.7101 15.1342 15.005 15.6631L14.8438 15.784" stroke="white" stroke-linecap="round" stroke-linejoin="round"/>
</svg>
