<svg width="21" height="21" viewBox="0 0 21 21" fill="none" xmlns="http://www.w3.org/2000/svg">
<path d="M16.1262 16.4411C13.6237 16.4411 12.3725 13.9736 12.005 13.0986H8.99497C8.62747 13.9736 7.37622 16.4411 4.87372 16.4411C1.68872 16.4411 1.68872 13.8161 1.68872 12.5823C1.68872 11.1211 4.21747 6.22985 4.50622 5.66985C4.54205 5.59854 4.59707 5.53865 4.66509 5.49691C4.7331 5.45517 4.81142 5.43325 4.89122 5.4336H16.1087C16.1885 5.43325 16.2668 5.45517 16.3349 5.49691C16.4029 5.53865 16.4579 5.59854 16.4937 5.66985C16.7825 6.22985 19.3112 11.1211 19.3112 12.5823C19.3112 13.8336 19.3112 16.4411 16.1262 16.4411ZM8.69747 12.2498H12.3025C12.3938 12.2492 12.4829 12.2777 12.5568 12.3312C12.6308 12.3847 12.6858 12.4604 12.7137 12.5473C12.7137 12.5473 13.7812 15.5923 16.1262 15.5923C18.2612 15.5923 18.4362 14.2361 18.4362 12.6086C18.4362 11.7336 16.8962 8.38235 15.8112 6.33485H5.15372C4.10372 8.38235 2.52872 11.7073 2.52872 12.6086C2.52872 14.2361 2.70372 15.5923 4.83872 15.5923C7.18372 15.5923 8.24247 12.5736 8.25122 12.5473C8.28069 12.4544 8.34096 12.3743 8.42209 12.3202C8.50321 12.2661 8.60035 12.2413 8.69747 12.2498Z" fill="white"/>
<path d="M10.5 6.30867C10.3987 6.3104 10.3 6.27619 10.2215 6.21212C10.1431 6.14806 10.0898 6.05827 10.0712 5.95867C9.98339 5.42465 10.0056 4.87832 10.1365 4.3532C10.2674 3.82807 10.5042 3.33524 10.8325 2.90492C11.2852 2.42769 11.8397 2.0587 12.4548 1.8254C13.0698 1.5921 13.7296 1.50051 14.385 1.55742C14.501 1.55742 14.6123 1.60352 14.6943 1.68557C14.7764 1.76761 14.8225 1.87889 14.8225 1.99492C14.8225 2.11096 14.7764 2.22224 14.6943 2.30428C14.6123 2.38633 14.501 2.43242 14.385 2.43242C13.856 2.38562 13.3232 2.45714 12.8253 2.64177C12.3274 2.82641 11.8768 3.11955 11.5062 3.49992C11.0159 4.17667 10.8087 5.01789 10.9287 5.84492C10.9492 5.95859 10.9238 6.07572 10.8583 6.17079C10.7927 6.26586 10.6922 6.33115 10.5787 6.35242L10.5 6.30867Z" fill="white"/>
<path d="M14.8232 11.5502C14.5447 11.5502 14.2777 11.4396 14.0808 11.2428C13.8839 11.0459 13.7732 10.779 13.7732 10.5006C13.7718 10.3626 13.7983 10.2257 13.8513 10.0983C13.9042 9.97078 13.9824 9.85535 14.0812 9.75893C14.2301 9.61427 14.4172 9.51506 14.6206 9.47292C14.8239 9.43079 15.035 9.44747 15.2292 9.52103C15.3568 9.57565 15.4713 9.65674 15.5652 9.75893C15.6639 9.85535 15.7422 9.97078 15.7951 10.0983C15.848 10.2257 15.8746 10.3626 15.8731 10.5006C15.8737 10.6358 15.8451 10.7694 15.7891 10.8925C15.745 11.026 15.6679 11.1463 15.5652 11.2423C15.4708 11.3405 15.3561 11.4169 15.2292 11.4662C15.1011 11.522 14.9629 11.5506 14.8232 11.5502Z" fill="white"/>
<path d="M6.29764 11.5506C6.01988 11.5503 5.75359 11.4396 5.55731 11.2426C5.45474 11.1465 5.37789 11.0262 5.33382 10.8926C5.2796 10.769 5.25109 10.6357 5.25 10.5007C5.24957 10.361 5.27811 10.2228 5.33382 10.0947C5.43872 9.84128 5.63966 9.63991 5.89255 9.53478C6.02043 9.4793 6.15829 9.45068 6.29764 9.45068C6.43698 9.45068 6.57484 9.4793 6.70272 9.53478C6.83025 9.58245 6.945 9.65912 7.03796 9.75876C7.23449 9.95546 7.34502 10.2223 7.34527 10.5007C7.35675 10.6181 7.34729 10.7366 7.31733 10.8506C7.2679 10.9816 7.19178 11.1008 7.09384 11.2006C6.99386 11.3127 6.87103 11.4019 6.73367 11.4623C6.59631 11.5226 6.44761 11.5528 6.29764 11.5506Z" fill="white"/>
</svg>
