<svg width="14" height="13" viewBox="0 0 14 13" fill="none" xmlns="http://www.w3.org/2000/svg">
<path d="M7.60457 13C5.93203 13 4.56794 11.7065 4.56794 10.114V7.0005H8.68076C8.97551 7.0005 9.20857 6.7795 9.20857 6.5C9.20857 6.227 8.97551 5.9995 8.68076 5.9995H4.56794V2.8925C4.56794 1.3 5.93203 0 7.61828 0H10.9565C12.6359 0 14 1.2935 14 2.886V10.1075C14 11.7065 12.6291 13 10.9497 13H7.60457ZM2.85657 8.74237C2.65445 8.94387 2.32433 8.94387 2.12221 8.74887L0.154955 6.85737C0.0538969 6.75987 0 6.63637 0 6.49987C0 6.36987 0.0538969 6.23987 0.154955 6.14887L2.12221 4.25737C2.22327 4.15987 2.35801 4.10787 2.48602 4.10787C2.62076 4.10787 2.75551 4.15987 2.85657 4.25737C3.05868 4.45237 3.05868 4.77087 2.85657 4.96587L1.77862 5.99937L4.56781 5.99937V7.00037L1.77862 7.00037L2.85657 8.03387C3.05868 8.22887 3.05868 8.54737 2.85657 8.74237Z" fill="#FE602F"/>
</svg>
