<svg width="14" height="14" viewBox="0 0 14 14" fill="none" xmlns="http://www.w3.org/2000/svg">
<path d="M13.524 5.285L12.201 4.844L12.824 3.598C12.8872 3.46758 12.9083 3.32078 12.8845 3.17784C12.8606 3.03491 12.793 2.90289 12.691 2.8L11.2 1.309C11.0966 1.20546 10.9633 1.13695 10.8189 1.11309C10.6745 1.08923 10.5262 1.11124 10.395 1.176L9.149 1.799L8.708 0.476002C8.66142 0.338097 8.57302 0.21814 8.45508 0.132826C8.33715 0.0475116 8.19555 0.00108337 8.05 2.33347e-06H5.95C5.80325 -0.00037648 5.66009 0.0453756 5.54076 0.130792C5.42143 0.216208 5.33196 0.336968 5.285 0.476002L4.844 1.799L3.598 1.176C3.46758 1.11285 3.32078 1.09172 3.17784 1.11555C3.03491 1.13937 2.90289 1.20696 2.8 1.309L1.309 2.8C1.20546 2.90344 1.13695 3.03672 1.11309 3.18112C1.08923 3.32552 1.11124 3.47376 1.176 3.605L1.799 4.851L0.476002 5.292C0.338097 5.33858 0.21814 5.42698 0.132826 5.54492C0.0475116 5.66285 0.00108337 5.80445 2.33347e-06 5.95V8.05C-0.00037648 8.19675 0.0453756 8.33991 0.130792 8.45924C0.216208 8.57857 0.336968 8.66804 0.476002 8.715L1.799 9.156L1.176 10.402C1.11285 10.5324 1.09172 10.6792 1.11555 10.8222C1.13937 10.9651 1.20696 11.0971 1.309 11.2L2.8 12.691C2.90344 12.7945 3.03672 12.8631 3.18112 12.8869C3.32552 12.9108 3.47376 12.8888 3.605 12.824L4.851 12.201L5.292 13.524C5.33896 13.663 5.42843 13.7838 5.54776 13.8692C5.66709 13.9546 5.81025 14.0004 5.957 14H8.057C8.20375 14.0004 8.34691 13.9546 8.46624 13.8692C8.58557 13.7838 8.67504 13.663 8.722 13.524L9.163 12.201L10.409 12.824C10.5386 12.8856 10.684 12.9058 10.8254 12.882C10.9669 12.8582 11.0977 12.7916 11.2 12.691L12.691 11.2C12.7945 11.0966 12.8631 10.9633 12.8869 10.8189C12.9108 10.6745 12.8888 10.5262 12.824 10.395L12.201 9.149L13.524 8.708C13.6619 8.66142 13.7819 8.57302 13.8672 8.45508C13.9525 8.33715 13.9989 8.19555 14 8.05V5.95C14.0004 5.80325 13.9546 5.66009 13.8692 5.54076C13.7838 5.42143 13.663 5.33196 13.524 5.285ZM12.6 7.546L11.76 7.826C11.5668 7.88866 11.3896 7.99258 11.2406 8.13057C11.0917 8.26856 10.9745 8.43731 10.8972 8.62511C10.82 8.81291 10.7845 9.01526 10.7933 9.21814C10.802 9.42102 10.8548 9.61956 10.948 9.8L11.347 10.598L10.577 11.368L9.8 10.948C9.62049 10.8586 9.42386 10.8087 9.22342 10.8019C9.02298 10.7951 8.82341 10.8314 8.63822 10.9084C8.45303 10.9854 8.28655 11.1013 8.15004 11.2482C8.01354 11.3951 7.91019 11.5697 7.847 11.76L7.567 12.6H6.454L6.174 11.76C6.11134 11.5668 6.00742 11.3896 5.86943 11.2406C5.73144 11.0917 5.5627 10.9745 5.3749 10.8972C5.18709 10.82 4.98474 10.7845 4.78186 10.7933C4.57898 10.802 4.38044 10.8548 4.2 10.948L3.402 11.347L2.632 10.577L3.052 9.8C3.14517 9.61956 3.19797 9.42102 3.20673 9.21814C3.2155 9.01526 3.18003 8.81291 3.10278 8.62511C3.02553 8.43731 2.90835 8.26856 2.75936 8.13057C2.61038 7.99258 2.43316 7.88866 2.24 7.826L1.4 7.546V6.454L2.24 6.174C2.43316 6.11134 2.61038 6.00742 2.75936 5.86943C2.90835 5.73144 3.02553 5.5627 3.10278 5.3749C3.18003 5.18709 3.2155 4.98474 3.20673 4.78186C3.19797 4.57898 3.14517 4.38044 3.052 4.2L2.653 3.423L3.423 2.653L4.2 3.052C4.38044 3.14517 4.57898 3.19797 4.78186 3.20673C4.98474 3.2155 5.18709 3.18003 5.3749 3.10278C5.5627 3.02553 5.73144 2.90835 5.86943 2.75936C6.00742 2.61038 6.11134 2.43316 6.174 2.24L6.454 1.4H7.546L7.826 2.24C7.88866 2.43316 7.99258 2.61038 8.13057 2.75936C8.26856 2.90835 8.43731 3.02553 8.62511 3.10278C8.81291 3.18003 9.01526 3.2155 9.21814 3.20673C9.42102 3.19797 9.61956 3.14517 9.8 3.052L10.598 2.653L11.368 3.423L10.948 4.2C10.8586 4.37951 10.8087 4.57614 10.8019 4.77658C10.7951 4.97702 10.8314 5.17659 10.9084 5.36178C10.9854 5.54697 11.1013 5.71345 11.2482 5.84996C11.3951 5.98646 11.5697 6.08981 11.76 6.153L12.6 6.433V7.546ZM7 4.2C6.44621 4.2 5.90486 4.36422 5.4444 4.67189C4.98395 4.97955 4.62506 5.41685 4.41314 5.92849C4.20121 6.44012 4.14576 7.00311 4.2538 7.54625C4.36184 8.0894 4.62851 8.58831 5.0201 8.9799C5.41169 9.37149 5.9106 9.63816 6.45375 9.7462C6.99689 9.85424 7.55988 9.79879 8.07151 9.58686C8.58315 9.37494 9.02045 9.01605 9.32811 8.5556C9.63578 8.09514 9.8 7.55379 9.8 7C9.8 6.25739 9.505 5.5452 8.9799 5.0201C8.4548 4.495 7.74261 4.2 7 4.2ZM7 8.4C6.72311 8.4 6.45243 8.31789 6.2222 8.16406C5.99197 8.01022 5.81253 7.79157 5.70657 7.53576C5.60061 7.27994 5.57288 6.99845 5.6269 6.72687C5.68092 6.4553 5.81426 6.20584 6.01005 6.01005C6.20584 5.81426 6.4553 5.68092 6.72687 5.6269C6.99845 5.57288 7.27994 5.60061 7.53576 5.70657C7.79157 5.81253 8.01022 5.99197 8.16406 6.2222C8.31789 6.45243 8.4 6.72311 8.4 7C8.4 7.3713 8.2525 7.7274 7.98995 7.98995C7.7274 8.2525 7.3713 8.4 7 8.4Z" fill="#333333"/>
</svg>
