<svg width="18" height="18" viewBox="0 0 18 18" fill="none" xmlns="http://www.w3.org/2000/svg">
<path d="M9.30078 4.0887C9.07312 4.0887 8.85478 4.1794 8.6938 4.34086C8.53282 4.50231 8.44238 4.72129 8.44238 4.94962V13.5588C8.44238 13.7871 8.53282 14.0061 8.6938 14.1676C8.85478 14.329 9.07312 14.4197 9.30078 14.4197C9.52844 14.4197 9.74678 14.329 9.90776 14.1676C10.0687 14.0061 10.1592 13.7871 10.1592 13.5588V4.94962C10.1592 4.72129 10.0687 4.50231 9.90776 4.34086C9.74678 4.1794 9.52844 4.0887 9.30078 4.0887ZM5.00879 9.25422C4.78113 9.25422 4.56279 9.34492 4.40181 9.50638C4.24083 9.66783 4.15039 9.88681 4.15039 10.1151V13.5588C4.15039 13.7871 4.24083 14.0061 4.40181 14.1676C4.56279 14.329 4.78113 14.4197 5.00879 14.4197C5.23645 14.4197 5.45479 14.329 5.61577 14.1676C5.77675 14.0061 5.86719 13.7871 5.86719 13.5588V10.1151C5.86719 9.88681 5.77675 9.66783 5.61577 9.50638C5.45479 9.34492 5.23645 9.25422 5.00879 9.25422ZM13.5928 7.53238C13.3651 7.53238 13.1468 7.62308 12.9858 7.78454C12.8248 7.94599 12.7344 8.16497 12.7344 8.3933V13.5588C12.7344 13.7871 12.8248 14.0061 12.9858 14.1676C13.1468 14.329 13.3651 14.4197 13.5928 14.4197C13.8204 14.4197 14.0388 14.329 14.1998 14.1676C14.3607 14.0061 14.4512 13.7871 14.4512 13.5588V8.3933C14.4512 8.16497 14.3607 7.94599 14.1998 7.78454C14.0388 7.62308 13.8204 7.53238 13.5928 7.53238ZM15.3096 0.64502H3.29199C2.60901 0.64502 1.954 0.917131 1.47105 1.40149C0.988111 1.88585 0.716797 2.54279 0.716797 3.22778V15.2807C0.716797 15.9656 0.988111 16.6226 1.47105 17.1069C1.954 17.5913 2.60901 17.8634 3.29199 17.8634H15.3096C15.9926 17.8634 16.6476 17.5913 17.1305 17.1069C17.6135 16.6226 17.8848 15.9656 17.8848 15.2807V3.22778C17.8848 2.54279 17.6135 1.88585 17.1305 1.40149C16.6476 0.917131 15.9926 0.64502 15.3096 0.64502ZM16.168 15.2807C16.168 15.509 16.0775 15.728 15.9166 15.8894C15.7556 16.0509 15.5372 16.1416 15.3096 16.1416H3.29199C3.06433 16.1416 2.84599 16.0509 2.68501 15.8894C2.52403 15.728 2.43359 15.509 2.43359 15.2807V3.22778C2.43359 2.99945 2.52403 2.78047 2.68501 2.61902C2.84599 2.45756 3.06433 2.36686 3.29199 2.36686H15.3096C15.5372 2.36686 15.7556 2.45756 15.9166 2.61902C16.0775 2.78047 16.168 2.99945 16.168 3.22778V15.2807Z" fill="white"/>
</svg>
