<svg width="19" height="18" viewBox="0 0 19 18" fill="none" xmlns="http://www.w3.org/2000/svg">
<path d="M17.7473 0.172591C17.1201 0.0651992 16.485 0.00992033 15.8485 0.007328C13.6771 0.00555839 11.5509 0.624521 9.72352 1.79043C7.8914 0.639829 5.76559 0.0360585 3.59852 0.0508184C2.96209 0.0534107 2.32698 0.10869 1.69977 0.216082C1.49433 0.25129 1.30828 0.358259 1.17514 0.517725C1.04199 0.677191 0.970493 0.878674 0.973524 1.08589V11.5236C0.97165 11.6514 0.998134 11.778 1.05109 11.8945C1.10405 12.011 1.18218 12.1144 1.27993 12.1975C1.37767 12.2805 1.49262 12.3411 1.61661 12.375C1.7406 12.4089 1.87057 12.4151 1.99727 12.3934C3.25117 12.1776 4.53583 12.2134 5.77558 12.4987C7.01534 12.784 8.18512 13.3131 9.21602 14.0547L9.32102 14.1156H9.41727C9.51431 14.1558 9.6184 14.1765 9.72352 14.1765C9.82865 14.1765 9.93273 14.1558 10.0298 14.1156H10.126L10.231 14.0547C11.2547 13.2965 12.4212 12.7503 13.6612 12.4485C14.9011 12.1467 16.1895 12.0954 17.4498 12.2977C17.5765 12.3195 17.7064 12.3132 17.8304 12.2793C17.9544 12.2454 18.0694 12.1848 18.1671 12.1018C18.2649 12.0187 18.343 11.9153 18.396 11.7988C18.4489 11.6824 18.4754 11.5557 18.4735 11.4279V0.990211C18.4644 0.792028 18.3874 0.602895 18.2553 0.454181C18.1232 0.305468 17.944 0.206111 17.7473 0.172591ZM8.84852 11.7323C7.22967 10.8857 5.42773 10.4439 3.59852 10.445C3.30977 10.445 3.02102 10.445 2.72352 10.445V1.74694C3.01495 1.73025 3.3071 1.73025 3.59852 1.74694C5.46524 1.74489 7.29121 2.28944 8.84852 3.3126V11.7323ZM16.7235 10.4798C16.426 10.4798 16.1373 10.4798 15.8485 10.4798C14.0193 10.4787 12.2174 10.9205 10.5985 11.7671V3.3126C12.1558 2.28944 13.9818 1.74489 15.8485 1.74694C16.1399 1.73025 16.4321 1.73025 16.7235 1.74694V10.4798ZM17.7473 14.0895C17.1201 13.9821 16.485 13.9269 15.8485 13.9243C13.6771 13.9225 11.5509 14.5415 9.72352 15.7074C7.8961 14.5415 5.76995 13.9225 3.59852 13.9243C2.96209 13.9269 2.32698 13.9821 1.69977 14.0895C1.58587 14.1075 1.47667 14.1477 1.37844 14.2077C1.28021 14.2678 1.1949 14.3466 1.12741 14.4395C1.05991 14.5325 1.01157 14.6378 0.985165 14.7494C0.958756 14.861 0.9548 14.9767 0.973524 15.0898C1.01799 15.3157 1.1507 15.5148 1.34259 15.6436C1.53448 15.7724 1.7699 15.8204 1.99727 15.7769C3.25117 15.5611 4.53583 15.5969 5.77558 15.8823C7.01534 16.1676 8.18512 16.6966 9.21602 17.4383C9.36421 17.5432 9.54161 17.5995 9.72352 17.5995C9.90544 17.5995 10.0828 17.5432 10.231 17.4383C11.2619 16.6966 12.4317 16.1676 13.6715 15.8823C14.9112 15.5969 16.1959 15.5611 17.4498 15.7769C17.6772 15.8204 17.9126 15.7724 18.1045 15.6436C18.2963 15.5148 18.4291 15.3157 18.4735 15.0898C18.4922 14.9767 18.4883 14.861 18.4619 14.7494C18.4355 14.6378 18.3871 14.5325 18.3196 14.4395C18.2521 14.3466 18.1668 14.2678 18.0686 14.2077C17.9704 14.1477 17.8612 14.1075 17.7473 14.0895Z" fill="#FE602F"/>
</svg>
