<svg width="19" height="20" viewBox="0 0 19 20" fill="none" xmlns="http://www.w3.org/2000/svg">
<path d="M11.2881 1.14468L11.2881 1.14469L11.2919 1.14785L17.6214 6.39839C17.622 6.39888 17.6226 6.39937 17.6231 6.39986C17.9027 6.63685 18.1241 6.92551 18.2745 7.24576C18.4252 7.56657 18.5017 7.91271 18.5 8.26159V8.26404V17.0036C18.5 17.6565 18.2261 18.2886 17.7288 18.7592C17.2306 19.2306 16.5492 19.5 15.8333 19.5H3.16674C2.45087 19.5 1.76949 19.2306 1.27125 18.7592C0.773942 18.2886 0.5001 17.6565 0.5001 17.0036V8.27403H0.500118L0.500082 8.26983C0.49714 7.91956 0.573032 7.57185 0.723745 7.24955L0.270818 7.03776L0.723745 7.24955C0.874191 6.92782 1.09623 6.63784 1.37686 6.39991L7.70817 1.14785L7.70818 1.14787L7.71195 1.14468C8.19989 0.731709 8.83627 0.5 9.50003 0.5C10.1638 0.5 10.8002 0.731709 11.2881 1.14468ZM11.6111 18.5024H12.1111V18.0024V13.0084C12.1111 12.6017 11.9401 12.2176 11.6456 11.9389C11.352 11.6611 10.9595 11.5096 10.5556 11.5096H8.44448C8.04057 11.5096 7.64801 11.6611 7.35444 11.9389C7.05993 12.2176 6.88894 12.6017 6.88894 13.0084V18.0024V18.5024H7.38894H11.6111ZM13.2222 18.0024V18.5024H13.7222H15.8333C16.2372 18.5024 16.6298 18.3508 16.9234 18.073C17.2179 17.7943 17.3889 17.4103 17.3889 17.0036V8.26404V8.26337C17.3886 8.04624 17.3394 7.83258 17.2456 7.63688C17.1519 7.44129 17.0163 7.26903 16.8496 7.13044L16.8489 7.12981L10.5163 1.88672C10.5162 1.88662 10.5161 1.88651 10.516 1.88641C10.2313 1.64994 9.87003 1.52278 9.50003 1.52278C9.13003 1.52278 8.76874 1.64995 8.4841 1.88642C8.48398 1.88652 8.48386 1.88662 8.48374 1.88672L2.15121 7.12981L2.15045 7.13044C1.98375 7.26903 1.84816 7.44129 1.75445 7.63688L2.20537 7.85291L1.75445 7.63688C1.66069 7.83259 1.61149 8.04625 1.6112 8.26337V8.26404V17.0036C1.6112 17.4103 1.78219 17.7943 2.0767 18.073L2.42036 17.7098L2.0767 18.073C2.37028 18.3508 2.76283 18.5024 3.16674 18.5024H5.27784H5.77784V18.0024V13.0084C5.77784 12.3555 6.05168 11.7233 6.54899 11.2528C7.04723 10.7813 7.72861 10.512 8.44448 10.512H10.5556C11.2715 10.512 11.9528 10.7813 12.4511 11.2528C12.9484 11.7233 13.2222 12.3555 13.2222 13.0084V18.0024Z" fill="white" stroke="white"/>
</svg>
