<svg width="22" height="19" viewBox="0 0 22 19" fill="none" xmlns="http://www.w3.org/2000/svg">
<mask id="path-1-inside-1_1844_1146" fill="white">
<path d="M10.9999 13.4194C9.47229 13.4194 8.00721 12.8378 6.927 11.8026C5.84679 10.7674 5.23994 9.36337 5.23994 7.89938V1.49771C5.22471 1.29033 5.22471 1.08217 5.23994 0.874792C5.25241 0.781033 5.28404 0.690548 5.333 0.608502C5.38197 0.526456 5.44732 0.454456 5.52532 0.396612C5.60332 0.338769 5.69244 0.296216 5.78761 0.271382C5.88277 0.246548 5.9821 0.239919 6.07994 0.251875C6.17777 0.263831 6.27219 0.294137 6.3578 0.341062C6.44342 0.387988 6.51855 0.450614 6.57891 0.525365C6.63926 0.600116 6.68367 0.685528 6.70958 0.776725C6.7355 0.867922 6.74241 0.963117 6.72994 1.05688C6.71933 1.20364 6.71933 1.35094 6.72994 1.49771V7.89938C6.72994 8.98212 7.17876 10.0205 7.97766 10.7861C8.77657 11.5518 9.86011 11.9819 10.9899 11.9819C12.1198 11.9819 13.2033 11.5518 14.0022 10.7861C14.8011 10.0205 15.2499 8.98212 15.2499 7.89938V1.49771C15.2605 1.35094 15.2605 1.20364 15.2499 1.05688C15.2545 0.885425 15.3229 0.721192 15.4428 0.593837C15.5626 0.466482 15.7261 0.3844 15.9036 0.362415C16.081 0.340431 16.2609 0.379993 16.4106 0.473956C16.5603 0.567919 16.67 0.71009 16.7199 0.874792C16.7352 1.08217 16.7352 1.29033 16.7199 1.49771V7.89938C16.72 9.35675 16.1186 10.755 15.047 11.7891C13.9755 12.8232 12.5206 13.4093 10.9999 13.4194V13.4194Z"/>
</mask>
<path d="M10.9999 13.4194C9.47229 13.4194 8.00721 12.8378 6.927 11.8026C5.84679 10.7674 5.23994 9.36337 5.23994 7.89938V1.49771C5.22471 1.29033 5.22471 1.08217 5.23994 0.874792C5.25241 0.781033 5.28404 0.690548 5.333 0.608502C5.38197 0.526456 5.44732 0.454456 5.52532 0.396612C5.60332 0.338769 5.69244 0.296216 5.78761 0.271382C5.88277 0.246548 5.9821 0.239919 6.07994 0.251875C6.17777 0.263831 6.27219 0.294137 6.3578 0.341062C6.44342 0.387988 6.51855 0.450614 6.57891 0.525365C6.63926 0.600116 6.68367 0.685528 6.70958 0.776725C6.7355 0.867922 6.74241 0.963117 6.72994 1.05688C6.71933 1.20364 6.71933 1.35094 6.72994 1.49771V7.89938C6.72994 8.98212 7.17876 10.0205 7.97766 10.7861C8.77657 11.5518 9.86011 11.9819 10.9899 11.9819C12.1198 11.9819 13.2033 11.5518 14.0022 10.7861C14.8011 10.0205 15.2499 8.98212 15.2499 7.89938V1.49771C15.2605 1.35094 15.2605 1.20364 15.2499 1.05688C15.2545 0.885425 15.3229 0.721192 15.4428 0.593837C15.5626 0.466482 15.7261 0.3844 15.9036 0.362415C16.081 0.340431 16.2609 0.379993 16.4106 0.473956C16.5603 0.567919 16.67 0.71009 16.7199 0.874792C16.7352 1.08217 16.7352 1.29033 16.7199 1.49771V7.89938C16.72 9.35675 16.1186 10.755 15.047 11.7891C13.9755 12.8232 12.5206 13.4093 10.9999 13.4194V13.4194Z" fill="#FE602F"/>
<path d="M5.23994 1.49771H7.23994V1.42438L7.23457 1.35125L5.23994 1.49771ZM5.23994 0.874792L3.25741 0.610995L3.24963 0.669485L3.24531 0.728331L5.23994 0.874792ZM6.72994 1.05688L4.74741 0.793078L4.73947 0.852735L4.73514 0.912762L6.72994 1.05688ZM6.72994 1.49771H8.72994V1.42556L8.72474 1.35359L6.72994 1.49771ZM6.72994 7.89938L4.72994 7.89938L6.72994 7.89938ZM15.2499 7.89938H17.2499H15.2499ZM15.2499 1.49771L13.2551 1.35359L13.2499 1.42556V1.49771H15.2499ZM15.2499 1.05688L13.2506 1.00356L13.248 1.10239L13.2551 1.20099L15.2499 1.05688ZM16.7199 0.874792L18.7146 0.728331L18.6983 0.507089L18.634 0.294784L16.7199 0.874792ZM16.7199 1.49771L14.7253 1.35125L14.7199 1.42438V1.49771H16.7199ZM16.7199 7.89938L14.7199 7.89938L14.7199 7.89943L16.7199 7.89938ZM10.9999 11.4194C9.97591 11.4194 9.01005 11.0287 8.31081 10.3586L5.54319 13.2466C7.00437 14.6469 8.96867 15.4194 10.9999 15.4194L10.9999 11.4194ZM8.31081 10.3586C7.61447 9.6913 7.23994 8.80481 7.23994 7.89938H3.23994C3.23994 9.92193 4.07912 11.8435 5.54319 13.2466L8.31081 10.3586ZM7.23994 7.89938V1.49771H3.23994V7.89938H7.23994ZM7.23457 1.35125C7.2265 1.24137 7.2265 1.13113 7.23457 1.02125L3.24531 0.728331C3.22292 1.03322 3.22292 1.33928 3.24531 1.64417L7.23457 1.35125ZM7.22246 1.13859C7.19876 1.31672 7.13909 1.48485 7.0504 1.63346L3.6156 -0.416454C3.42898 -0.103751 3.30606 0.24535 3.25741 0.610995L7.22246 1.13859ZM7.0504 1.63346C6.96185 1.78184 6.84709 1.90634 6.71663 2.00309L4.334 -1.20987C4.04754 -0.997433 3.80209 -0.728927 3.6156 -0.416454L7.0504 1.63346ZM6.71663 2.00309C6.58634 2.09971 6.44191 2.16761 6.29263 2.20657L5.28259 -1.66381C4.94297 -1.57518 4.6203 -1.42217 4.334 -1.20987L6.71663 2.00309ZM6.29263 2.20657C6.14342 2.24551 5.98908 2.25565 5.83733 2.23711L6.32254 -1.73336C5.97513 -1.77581 5.62212 -1.75241 5.28259 -1.66381L6.29263 2.20657ZM5.83733 2.23711C5.68555 2.21856 5.53577 2.17122 5.39651 2.09489L7.31909 -1.41277C7.00861 -1.58295 6.66999 -1.6909 6.32254 -1.73336L5.83733 2.23711ZM5.39651 2.09489C5.25711 2.01849 5.12909 1.9134 5.02284 1.78181L8.13497 -0.731084C7.908 -1.01217 7.62972 -1.24251 7.31909 -1.41277L5.39651 2.09489ZM5.02284 1.78181C4.91642 1.65002 4.83441 1.49467 4.78574 1.32339L8.63342 0.23006C8.53292 -0.123616 8.36211 -0.449786 8.13497 -0.731084L5.02284 1.78181ZM4.78574 1.32339C4.73702 1.15193 4.7237 0.971299 4.74741 0.793078L8.71246 1.32067C8.76113 0.954934 8.73397 0.583911 8.63342 0.23006L4.78574 1.32339ZM4.73514 0.912762C4.7176 1.15548 4.7176 1.3991 4.73514 1.64182L8.72474 1.35359C8.72107 1.30278 8.72107 1.25181 8.72474 1.20099L4.73514 0.912762ZM4.72994 1.49771V7.89938H8.72994V1.49771H4.72994ZM4.72994 7.89938C4.72994 9.54068 5.41108 11.0966 6.59385 12.2301L9.36147 9.34216C8.94643 8.94441 8.72994 8.42356 8.72994 7.89938L4.72994 7.89938ZM6.59385 12.2301C7.77372 13.3608 9.3565 13.9819 10.9899 13.9819V9.98188C10.3637 9.98188 9.77941 9.74268 9.36147 9.34216L6.59385 12.2301ZM10.9899 13.9819C12.6234 13.9819 14.2061 13.3608 15.386 12.2301L12.6184 9.34216C12.2005 9.74268 11.6161 9.98188 10.9899 9.98188V13.9819ZM15.386 12.2301C16.5688 11.0966 17.2499 9.54068 17.2499 7.89938L13.2499 7.89938C13.2499 8.42356 13.0334 8.94441 12.6184 9.34216L15.386 12.2301ZM17.2499 7.89938V1.49771H13.2499V7.89938H17.2499ZM17.2447 1.64182C17.2623 1.3991 17.2623 1.15548 17.2447 0.912762L13.2551 1.20099C13.2588 1.25181 13.2588 1.30278 13.2551 1.35359L17.2447 1.64182ZM17.2492 1.11019C17.2404 1.4402 17.1086 1.7421 16.8992 1.96457L13.9864 -0.7769C13.5373 -0.299716 13.2686 0.330651 13.2506 1.00356L17.2492 1.11019ZM16.8992 1.96457C16.6917 2.18505 16.4233 2.31332 16.1494 2.34725L15.6577 -1.62242C15.0288 -1.54452 14.4336 -1.25209 13.9864 -0.7769L16.8992 1.96457ZM16.1494 2.34725C15.876 2.38112 15.5926 2.32182 15.3474 2.16796L17.4738 -1.22005C16.9292 -1.56183 16.2861 -1.70026 15.6577 -1.62242L16.1494 2.34725ZM15.3474 2.16796C15.1005 2.01301 14.9 1.76544 14.8059 1.4548L18.634 0.294784C18.44 -0.345259 18.0201 -0.87717 17.4738 -1.22005L15.3474 2.16796ZM14.7253 1.02125C14.7334 1.13113 14.7334 1.24137 14.7253 1.35125L18.7146 1.64417C18.737 1.33928 18.737 1.03322 18.7146 0.728331L14.7253 1.02125ZM14.7199 1.49771V7.89938H18.7199V1.49771H14.7199ZM14.7199 7.89943C14.72 8.80081 14.3488 9.68351 13.6582 10.35L16.4359 13.2283C17.8884 11.8265 18.72 9.9127 18.7199 7.89932L14.7199 7.89943ZM13.6582 10.35C12.9648 11.0192 12.0059 11.4126 10.9866 11.4194L11.0132 15.4193C13.0353 15.4059 14.9862 14.6273 16.4359 13.2283L13.6582 10.35Z" fill="#FE602F" mask="url(#path-1-inside-1_1844_1146)"/>
<mask id="path-3-inside-2_1844_1146" fill="white">
<path d="M16.5497 7.5833C16.4122 7.58216 16.2776 7.54576 16.1597 7.47788L15.6197 7.17122C15.4582 7.07236 15.3422 6.91796 15.2957 6.73973C15.2492 6.5615 15.2757 6.37298 15.3697 6.21288C15.4696 6.05456 15.63 5.9399 15.8168 5.89335C16.0037 5.8468 16.2021 5.87205 16.3697 5.96372L16.7197 6.16497C19.3897 5.9733 19.9997 3.05997 20.1997 1.67997H1.79973C1.93973 3.06955 2.57973 5.9733 5.24973 6.10747L5.59973 5.90622C5.76739 5.81455 5.9658 5.7893 6.15262 5.83585C6.33944 5.8824 6.49988 5.99706 6.59973 6.15538C6.69375 6.31548 6.72023 6.504 6.67374 6.68223C6.62725 6.86046 6.5113 7.01486 6.34973 7.11372L5.80973 7.42038C5.69188 7.48826 5.55722 7.52466 5.41973 7.5258C1.30973 7.5258 0.219727 3.2133 0.219727 0.932467C0.230089 0.742661 0.317463 0.564257 0.463196 0.435339C0.608928 0.306422 0.801474 0.237206 0.999727 0.242467H20.9997C21.1978 0.244949 21.3871 0.321471 21.5272 0.455729C21.6673 0.589986 21.7471 0.771364 21.7497 0.961217C21.7497 3.24205 20.6597 7.5833 16.5497 7.5833Z"/>
</mask>
<path d="M16.5497 7.5833C16.4122 7.58216 16.2776 7.54576 16.1597 7.47788L15.6197 7.17122C15.4582 7.07236 15.3422 6.91796 15.2957 6.73973C15.2492 6.5615 15.2757 6.37298 15.3697 6.21288C15.4696 6.05456 15.63 5.9399 15.8168 5.89335C16.0037 5.8468 16.2021 5.87205 16.3697 5.96372L16.7197 6.16497C19.3897 5.9733 19.9997 3.05997 20.1997 1.67997H1.79973C1.93973 3.06955 2.57973 5.9733 5.24973 6.10747L5.59973 5.90622C5.76739 5.81455 5.9658 5.7893 6.15262 5.83585C6.33944 5.8824 6.49988 5.99706 6.59973 6.15538C6.69375 6.31548 6.72023 6.504 6.67374 6.68223C6.62725 6.86046 6.5113 7.01486 6.34973 7.11372L5.80973 7.42038C5.69188 7.48826 5.55722 7.52466 5.41973 7.5258C1.30973 7.5258 0.219727 3.2133 0.219727 0.932467C0.230089 0.742661 0.317463 0.564257 0.463196 0.435339C0.608928 0.306422 0.801474 0.237206 0.999727 0.242467H20.9997C21.1978 0.244949 21.3871 0.321471 21.5272 0.455729C21.6673 0.589986 21.7471 0.771364 21.7497 0.961217C21.7497 3.24205 20.6597 7.5833 16.5497 7.5833Z" fill="#FE602F"/>
<path d="M16.5497 7.5833L16.5332 9.58323L16.5414 9.5833H16.5497V7.5833ZM16.1597 7.47788L17.158 5.74477L17.1474 5.73876L16.1597 7.47788ZM15.6197 7.17122L14.5759 8.87722L14.6037 8.89424L14.6321 8.91034L15.6197 7.17122ZM15.3697 6.21288L13.678 5.14602L13.6612 5.17278L13.6451 5.20006L15.3697 6.21288ZM16.3697 5.96372L17.3667 4.22991L17.348 4.21918L17.3291 4.20885L16.3697 5.96372ZM16.7197 6.16497L15.7228 7.89878L16.2529 8.20362L16.8629 8.15983L16.7197 6.16497ZM20.1997 1.67997L22.179 1.96683L22.5105 -0.320033H20.1997V1.67997ZM1.79973 1.67997V-0.320033H-0.411898L-0.1902 1.88045L1.79973 1.67997ZM5.24973 6.10747L5.14935 8.10495L5.73678 8.13446L6.24667 7.84128L5.24973 6.10747ZM5.59973 5.90622L4.64033 4.15135L4.62144 4.16168L4.60279 4.1724L5.59973 5.90622ZM6.59973 6.15538L8.32431 5.14256L8.30829 5.11528L8.29141 5.08852L6.59973 6.15538ZM6.34973 7.11372L7.33738 8.85284L7.36573 8.83674L7.39354 8.81972L6.34973 7.11372ZM5.80973 7.42038L4.82206 5.68123L4.81151 5.68731L5.80973 7.42038ZM5.41973 7.5258V9.5258H5.42801L5.4363 9.52573L5.41973 7.5258ZM0.219727 0.932467L-1.7773 0.82344L-1.78027 0.877913V0.932467H0.219727ZM0.999727 0.242467L0.946668 2.24176L0.973193 2.24247H0.999727V0.242467ZM20.9997 0.242467L21.0248 -1.75738L21.0123 -1.75753H20.9997V0.242467ZM21.7497 0.961217L23.7497 0.961217V0.947576L23.7495 0.933936L21.7497 0.961217ZM16.5663 5.58337C16.7696 5.58505 16.9736 5.63864 17.1579 5.74481L15.1615 9.21096C15.5815 9.45289 16.0549 9.57927 16.5332 9.58323L16.5663 5.58337ZM17.1474 5.73876L16.6074 5.4321L14.6321 8.91034L15.1721 9.217L17.1474 5.73876ZM16.6635 5.46521C16.9293 5.62784 17.1428 5.89691 17.2309 6.23489L13.3605 7.24457C13.5416 7.93901 13.987 8.51687 14.5759 8.87722L16.6635 5.46521ZM17.2309 6.23489C17.3197 6.57506 17.2668 6.93205 17.0943 7.2257L13.6451 5.20006C13.2846 5.81391 13.1788 6.54795 13.3605 7.24457L17.2309 6.23489ZM17.0614 7.27975C16.8776 7.57121 16.5979 7.75988 16.3004 7.83402L15.3333 3.95269C14.6621 4.11992 14.0615 4.53792 13.678 5.14602L17.0614 7.27975ZM16.3004 7.83402C16.004 7.90786 15.6869 7.86981 15.4103 7.71858L17.3291 4.20885C16.7172 3.87429 16.0033 3.78575 15.3333 3.95269L16.3004 7.83402ZM15.3728 7.69753L15.7228 7.89878L17.7167 4.43116L17.3667 4.22991L15.3728 7.69753ZM16.8629 8.15983C19.0633 8.00188 20.4022 6.66373 21.1363 5.33573C21.8306 4.07988 22.0719 2.70628 22.179 1.96683L18.2204 1.39311C18.1276 2.03365 17.9639 2.80672 17.6356 3.40046C17.3473 3.92203 17.0462 4.13639 16.5765 4.1701L16.8629 8.15983ZM20.1997 -0.320033H1.79973V3.67997H20.1997V-0.320033ZM-0.1902 1.88045C-0.108683 2.68956 0.124985 4.07626 0.829392 5.33889C1.57516 6.67567 2.94123 7.99399 5.14935 8.10495L5.3501 4.10999C4.88822 4.08678 4.59929 3.88613 4.32256 3.3901C4.00447 2.81993 3.84814 2.05996 3.78965 1.47948L-0.1902 1.88045ZM6.24667 7.84128L6.59667 7.64003L4.60279 4.1724L4.25278 4.37365L6.24667 7.84128ZM6.55912 7.66108C6.2825 7.81231 5.96541 7.85035 5.66907 7.77652L6.63617 3.89519C5.96619 3.72825 5.25228 3.81679 4.64033 4.15135L6.55912 7.66108ZM5.66907 7.77652C5.37152 7.70238 5.09185 7.51371 4.90804 7.22225L8.29141 5.08852C7.90791 4.48042 7.30736 4.06242 6.63617 3.89519L5.66907 7.77652ZM4.87514 7.1682C4.70269 6.87456 4.64976 6.51756 4.7385 6.17739L8.60897 7.18707C8.7907 6.49045 8.68481 5.75641 8.32431 5.14256L4.87514 7.1682ZM4.7385 6.17739C4.82667 5.83941 5.04011 5.57034 5.30591 5.40771L7.39354 8.81972C7.98249 8.45937 8.42782 7.88151 8.60897 7.18707L4.7385 6.17739ZM5.36208 5.37459L4.82208 5.68126L6.79738 9.15951L7.33738 8.85284L5.36208 5.37459ZM4.81151 5.68731C4.99584 5.58114 5.19988 5.52755 5.40315 5.52587L5.4363 9.52573C5.91455 9.52177 6.38792 9.39539 6.80795 9.15346L4.81151 5.68731ZM5.41973 5.5258C4.2277 5.5258 3.52082 4.96921 3.01097 4.08522C2.44624 3.10606 2.21973 1.82806 2.21973 0.932467H-1.78027C-1.78027 2.31771 -1.46179 4.33637 -0.45402 6.08367C0.608632 7.92614 2.50175 9.5258 5.41973 9.5258V5.5258ZM2.21675 1.04149C2.19719 1.39988 2.03273 1.71715 1.78834 1.93333L-0.861952 -1.06265C-1.3978 -0.588634 -1.73701 0.0854377 -1.7773 0.82344L2.21675 1.04149ZM1.78834 1.93333C1.54668 2.14711 1.24389 2.24965 0.946668 2.24176L1.05278 -1.75683C0.359061 -1.77524 -0.328825 -1.53427 -0.861952 -1.06265L1.78834 1.93333ZM0.999727 2.24247H20.9997V-1.75753H0.999727V2.24247ZM20.9747 2.24231C20.6776 2.23859 20.3778 2.12438 20.1434 1.89971L22.911 -0.988248C22.3964 -1.48144 21.7181 -1.74869 21.0248 -1.75738L20.9747 2.24231ZM20.1434 1.89971C19.9062 1.67244 19.7548 1.3474 19.7499 0.988498L23.7495 0.933936C23.7395 0.195331 23.4283 -0.492467 22.911 -0.988248L20.1434 1.89971ZM19.7497 0.961217C19.7497 1.85732 19.523 3.14438 18.9562 4.13228C18.4433 5.02631 17.7354 5.5833 16.5497 5.5833V9.5833C19.4741 9.5833 21.3662 7.96967 22.4257 6.12286C23.4314 4.36993 23.7497 2.34595 23.7497 0.961217H19.7497Z" fill="#FE602F" mask="url(#path-3-inside-2_1844_1146)"/>
<path d="M11 18.7578C10.8019 18.7554 10.6126 18.6788 10.4725 18.5446C10.3324 18.4103 10.2526 18.2289 10.25 18.0391V12.7012C10.25 12.5105 10.329 12.3277 10.4697 12.1929C10.6103 12.0581 10.8011 11.9824 11 11.9824C11.1989 11.9824 11.3897 12.0581 11.5303 12.1929C11.671 12.3277 11.75 12.5105 11.75 12.7012V18.0391C11.7474 18.2289 11.6676 18.4103 11.5275 18.5446C11.3874 18.6788 11.1981 18.7554 11 18.7578V18.7578Z" fill="#FE602F"/>
<path d="M16.5693 18.7578H6.56934C6.37042 18.7578 6.17966 18.6821 6.03901 18.5473C5.89835 18.4125 5.81934 18.2297 5.81934 18.0391C5.81934 17.8484 5.89835 17.6656 6.03901 17.5308C6.17966 17.396 6.37042 17.3203 6.56934 17.3203H16.5693C16.7682 17.3203 16.959 17.396 17.0997 17.5308C17.2403 17.6656 17.3193 17.8484 17.3193 18.0391C17.3193 18.2297 17.2403 18.4125 17.0997 18.5473C16.959 18.6821 16.7682 18.7578 16.5693 18.7578Z" fill="#FE602F"/>
</svg>
