<svg width="22" height="19" viewBox="0 0 22 19" fill="none" xmlns="http://www.w3.org/2000/svg">
<mask id="path-1-inside-1_1844_1438" fill="white">
<path d="M11.0004 13.4194C9.47278 13.4194 8.0077 12.8378 6.92749 11.8026C5.84728 10.7674 5.24042 9.36337 5.24042 7.89938V1.49771C5.2252 1.29033 5.2252 1.08217 5.24042 0.874792C5.2529 0.781033 5.28452 0.690548 5.33349 0.608502C5.38246 0.526456 5.4478 0.454456 5.52581 0.396612C5.60381 0.338769 5.69293 0.296216 5.78809 0.271382C5.88326 0.246548 5.98259 0.239919 6.08042 0.251875C6.17826 0.263831 6.27268 0.294137 6.35829 0.341062C6.44391 0.387988 6.51904 0.450614 6.57939 0.525365C6.63975 0.600116 6.68416 0.685528 6.71007 0.776725C6.73598 0.867922 6.7429 0.963117 6.73042 1.05688C6.71982 1.20364 6.71982 1.35094 6.73042 1.49771V7.89938C6.73042 8.98212 7.17924 10.0205 7.97815 10.7861C8.77705 11.5518 9.8606 11.9819 10.9904 11.9819C12.1202 11.9819 13.2038 11.5518 14.0027 10.7861C14.8016 10.0205 15.2504 8.98212 15.2504 7.89938V1.49771C15.261 1.35094 15.261 1.20364 15.2504 1.05688C15.255 0.885425 15.3234 0.721192 15.4433 0.593837C15.5631 0.466482 15.7266 0.3844 15.904 0.362415C16.0815 0.340431 16.2614 0.379993 16.4111 0.473956C16.5608 0.567919 16.6705 0.71009 16.7204 0.874792C16.7357 1.08217 16.7357 1.29033 16.7204 1.49771V7.89938C16.7205 9.35675 16.1191 10.755 15.0475 11.7891C13.976 12.8232 12.5211 13.4093 11.0004 13.4194V13.4194Z"/>
</mask>
<path d="M11.0004 13.4194C9.47278 13.4194 8.0077 12.8378 6.92749 11.8026C5.84728 10.7674 5.24042 9.36337 5.24042 7.89938V1.49771C5.2252 1.29033 5.2252 1.08217 5.24042 0.874792C5.2529 0.781033 5.28452 0.690548 5.33349 0.608502C5.38246 0.526456 5.4478 0.454456 5.52581 0.396612C5.60381 0.338769 5.69293 0.296216 5.78809 0.271382C5.88326 0.246548 5.98259 0.239919 6.08042 0.251875C6.17826 0.263831 6.27268 0.294137 6.35829 0.341062C6.44391 0.387988 6.51904 0.450614 6.57939 0.525365C6.63975 0.600116 6.68416 0.685528 6.71007 0.776725C6.73598 0.867922 6.7429 0.963117 6.73042 1.05688C6.71982 1.20364 6.71982 1.35094 6.73042 1.49771V7.89938C6.73042 8.98212 7.17924 10.0205 7.97815 10.7861C8.77705 11.5518 9.8606 11.9819 10.9904 11.9819C12.1202 11.9819 13.2038 11.5518 14.0027 10.7861C14.8016 10.0205 15.2504 8.98212 15.2504 7.89938V1.49771C15.261 1.35094 15.261 1.20364 15.2504 1.05688C15.255 0.885425 15.3234 0.721192 15.4433 0.593837C15.5631 0.466482 15.7266 0.3844 15.904 0.362415C16.0815 0.340431 16.2614 0.379993 16.4111 0.473956C16.5608 0.567919 16.6705 0.71009 16.7204 0.874792C16.7357 1.08217 16.7357 1.29033 16.7204 1.49771V7.89938C16.7205 9.35675 16.1191 10.755 15.0475 11.7891C13.976 12.8232 12.5211 13.4093 11.0004 13.4194V13.4194Z" fill="white"/>
<path d="M5.24042 1.49771H7.24042V1.42438L7.23505 1.35125L5.24042 1.49771ZM5.24042 0.874792L3.2579 0.610995L3.25012 0.669485L3.24579 0.728331L5.24042 0.874792ZM6.73042 1.05688L4.7479 0.793078L4.73996 0.852735L4.73562 0.912762L6.73042 1.05688ZM6.73042 1.49771H8.73042V1.42556L8.72523 1.35359L6.73042 1.49771ZM6.73042 7.89938L4.73042 7.89938L6.73042 7.89938ZM15.2504 7.89938H17.2504H15.2504ZM15.2504 1.49771L13.2556 1.35359L13.2504 1.42556V1.49771H15.2504ZM15.2504 1.05688L13.2511 1.00356L13.2485 1.10239L13.2556 1.20099L15.2504 1.05688ZM16.7204 0.874792L18.7151 0.728331L18.6988 0.507089L18.6345 0.294784L16.7204 0.874792ZM16.7204 1.49771L14.7258 1.35125L14.7204 1.42438V1.49771H16.7204ZM16.7204 7.89938L14.7204 7.89938L14.7204 7.89943L16.7204 7.89938ZM11.0004 11.4194C9.9764 11.4194 9.01054 11.0287 8.3113 10.3586L5.54368 13.2466C7.00486 14.6469 8.96916 15.4194 11.0004 15.4194L11.0004 11.4194ZM8.3113 10.3586C7.61495 9.6913 7.24042 8.80481 7.24042 7.89938H3.24042C3.24042 9.92193 4.07961 11.8435 5.54368 13.2466L8.3113 10.3586ZM7.24042 7.89938V1.49771H3.24042V7.89938H7.24042ZM7.23505 1.35125C7.22699 1.24137 7.22699 1.13113 7.23505 1.02125L3.24579 0.728331C3.22341 1.03322 3.22341 1.33928 3.24579 1.64417L7.23505 1.35125ZM7.22295 1.13859C7.19925 1.31672 7.13958 1.48485 7.05089 1.63346L3.61609 -0.416454C3.42947 -0.103751 3.30655 0.24535 3.2579 0.610995L7.22295 1.13859ZM7.05089 1.63346C6.96234 1.78184 6.84758 1.90634 6.71712 2.00309L4.33449 -1.20987C4.04803 -0.997433 3.80257 -0.728927 3.61609 -0.416454L7.05089 1.63346ZM6.71712 2.00309C6.58682 2.09971 6.4424 2.16761 6.29311 2.20657L5.28307 -1.66381C4.94346 -1.57518 4.62079 -1.42217 4.33449 -1.20987L6.71712 2.00309ZM6.29311 2.20657C6.14391 2.24551 5.98957 2.25565 5.83782 2.23711L6.32303 -1.73336C5.97561 -1.77581 5.62261 -1.75241 5.28307 -1.66381L6.29311 2.20657ZM5.83782 2.23711C5.68604 2.21856 5.53626 2.17122 5.397 2.09489L7.31958 -1.41277C7.0091 -1.58295 6.67048 -1.6909 6.32303 -1.73336L5.83782 2.23711ZM5.397 2.09489C5.2576 2.01849 5.12958 1.9134 5.02333 1.78181L8.13546 -0.731084C7.90849 -1.01217 7.63021 -1.24251 7.31958 -1.41277L5.397 2.09489ZM5.02333 1.78181C4.91691 1.65002 4.8349 1.49467 4.78623 1.32339L8.63391 0.23006C8.53341 -0.123616 8.36259 -0.449786 8.13546 -0.731084L5.02333 1.78181ZM4.78623 1.32339C4.73751 1.15193 4.72418 0.971299 4.7479 0.793078L8.71295 1.32067C8.76162 0.954934 8.73446 0.583911 8.63391 0.23006L4.78623 1.32339ZM4.73562 0.912762C4.71809 1.15548 4.71809 1.3991 4.73562 1.64182L8.72523 1.35359C8.72155 1.30278 8.72155 1.25181 8.72523 1.20099L4.73562 0.912762ZM4.73042 1.49771V7.89938H8.73042V1.49771H4.73042ZM4.73042 7.89938C4.73042 9.54068 5.41157 11.0966 6.59434 12.2301L9.36196 9.34216C8.94692 8.94441 8.73042 8.42356 8.73042 7.89938L4.73042 7.89938ZM6.59434 12.2301C7.77421 13.3608 9.35698 13.9819 10.9904 13.9819V9.98188C10.3642 9.98188 9.7799 9.74268 9.36196 9.34216L6.59434 12.2301ZM10.9904 13.9819C12.6239 13.9819 14.2066 13.3608 15.3865 12.2301L12.6189 9.34216C12.201 9.74268 11.6166 9.98188 10.9904 9.98188V13.9819ZM15.3865 12.2301C16.5693 11.0966 17.2504 9.54068 17.2504 7.89938L13.2504 7.89938C13.2504 8.42356 13.0339 8.94441 12.6189 9.34216L15.3865 12.2301ZM17.2504 7.89938V1.49771H13.2504V7.89938H17.2504ZM17.2452 1.64182C17.2628 1.3991 17.2628 1.15548 17.2452 0.912762L13.2556 1.20099C13.2593 1.25181 13.2593 1.30278 13.2556 1.35359L17.2452 1.64182ZM17.2497 1.11019C17.2409 1.4402 17.109 1.7421 16.8996 1.96457L13.9869 -0.7769C13.5377 -0.299716 13.2691 0.330651 13.2511 1.00356L17.2497 1.11019ZM16.8996 1.96457C16.6921 2.18505 16.4238 2.31332 16.1499 2.34725L15.6582 -1.62242C15.0293 -1.54452 14.4341 -1.25209 13.9869 -0.7769L16.8996 1.96457ZM16.1499 2.34725C15.8764 2.38112 15.593 2.32182 15.3479 2.16796L17.4743 -1.22005C16.9297 -1.56183 16.2866 -1.70026 15.6582 -1.62242L16.1499 2.34725ZM15.3479 2.16796C15.101 2.01301 14.9005 1.76544 14.8064 1.4548L18.6345 0.294784C18.4405 -0.345259 18.0206 -0.87717 17.4743 -1.22005L15.3479 2.16796ZM14.7258 1.02125C14.7339 1.13113 14.7339 1.24137 14.7258 1.35125L18.7151 1.64417C18.7374 1.33928 18.7374 1.03322 18.7151 0.728331L14.7258 1.02125ZM14.7204 1.49771V7.89938H18.7204V1.49771H14.7204ZM14.7204 7.89943C14.7204 8.80081 14.3493 9.68351 13.6587 10.35L16.4364 13.2283C17.8889 11.8265 18.7205 9.9127 18.7204 7.89932L14.7204 7.89943ZM13.6587 10.35C12.9653 11.0192 12.0064 11.4126 10.9871 11.4194L11.0137 15.4193C13.0358 15.4059 14.9867 14.6273 16.4364 13.2283L13.6587 10.35Z" fill="white" mask="url(#path-1-inside-1_1844_1438)"/>
<mask id="path-3-inside-2_1844_1438" fill="white">
<path d="M16.5502 7.5833C16.4127 7.58216 16.2781 7.54576 16.1602 7.47788L15.6202 7.17122C15.4586 7.07236 15.3427 6.91796 15.2962 6.73973C15.2497 6.5615 15.2762 6.37298 15.3702 6.21288C15.4701 6.05456 15.6305 5.9399 15.8173 5.89335C16.0041 5.8468 16.2026 5.87205 16.3702 5.96372L16.7202 6.16497C19.3902 5.9733 20.0002 3.05997 20.2002 1.67997H1.80021C1.94021 3.06955 2.58021 5.9733 5.25021 6.10747L5.60021 5.90622C5.76788 5.81455 5.96629 5.7893 6.15311 5.83585C6.33993 5.8824 6.50037 5.99706 6.60021 6.15538C6.69424 6.31548 6.72072 6.504 6.67423 6.68223C6.62773 6.86046 6.51179 7.01486 6.35021 7.11372L5.81021 7.42038C5.69237 7.48826 5.5577 7.52466 5.42021 7.5258C1.31021 7.5258 0.220215 3.2133 0.220215 0.932467C0.230577 0.742661 0.317951 0.564257 0.463684 0.435339C0.609417 0.306422 0.801962 0.237206 1.00021 0.242467H21.0002C21.1983 0.244949 21.3876 0.321471 21.5277 0.455729C21.6678 0.589986 21.7476 0.771364 21.7502 0.961217C21.7502 3.24205 20.6602 7.5833 16.5502 7.5833Z"/>
</mask>
<path d="M16.5502 7.5833C16.4127 7.58216 16.2781 7.54576 16.1602 7.47788L15.6202 7.17122C15.4586 7.07236 15.3427 6.91796 15.2962 6.73973C15.2497 6.5615 15.2762 6.37298 15.3702 6.21288C15.4701 6.05456 15.6305 5.9399 15.8173 5.89335C16.0041 5.8468 16.2026 5.87205 16.3702 5.96372L16.7202 6.16497C19.3902 5.9733 20.0002 3.05997 20.2002 1.67997H1.80021C1.94021 3.06955 2.58021 5.9733 5.25021 6.10747L5.60021 5.90622C5.76788 5.81455 5.96629 5.7893 6.15311 5.83585C6.33993 5.8824 6.50037 5.99706 6.60021 6.15538C6.69424 6.31548 6.72072 6.504 6.67423 6.68223C6.62773 6.86046 6.51179 7.01486 6.35021 7.11372L5.81021 7.42038C5.69237 7.48826 5.5577 7.52466 5.42021 7.5258C1.31021 7.5258 0.220215 3.2133 0.220215 0.932467C0.230577 0.742661 0.317951 0.564257 0.463684 0.435339C0.609417 0.306422 0.801962 0.237206 1.00021 0.242467H21.0002C21.1983 0.244949 21.3876 0.321471 21.5277 0.455729C21.6678 0.589986 21.7476 0.771364 21.7502 0.961217C21.7502 3.24205 20.6602 7.5833 16.5502 7.5833Z" fill="white"/>
<path d="M16.5502 7.5833L16.5336 9.58323L16.5419 9.5833H16.5502V7.5833ZM16.1602 7.47788L17.1585 5.74477L17.1479 5.73876L16.1602 7.47788ZM15.6202 7.17122L14.5764 8.87722L14.6042 8.89424L14.6326 8.91034L15.6202 7.17122ZM15.3702 6.21288L13.6785 5.14602L13.6617 5.17278L13.6456 5.20006L15.3702 6.21288ZM16.3702 5.96372L17.3672 4.22991L17.3485 4.21918L17.3296 4.20885L16.3702 5.96372ZM16.7202 6.16497L15.7233 7.89878L16.2534 8.20362L16.8634 8.15983L16.7202 6.16497ZM20.2002 1.67997L22.1795 1.96683L22.511 -0.320033H20.2002V1.67997ZM1.80021 1.67997V-0.320033H-0.411409L-0.189711 1.88045L1.80021 1.67997ZM5.25021 6.10747L5.14984 8.10495L5.73727 8.13446L6.24716 7.84128L5.25021 6.10747ZM5.60021 5.90622L4.64082 4.15135L4.62193 4.16168L4.60327 4.1724L5.60021 5.90622ZM6.60021 6.15538L8.3248 5.14256L8.30878 5.11528L8.2919 5.08852L6.60021 6.15538ZM6.35021 7.11372L7.33786 8.85284L7.36622 8.83674L7.39403 8.81972L6.35021 7.11372ZM5.81021 7.42038L4.82255 5.68123L4.81199 5.68731L5.81021 7.42038ZM5.42021 7.5258V9.5258H5.4285L5.43679 9.52573L5.42021 7.5258ZM0.220215 0.932467L-1.77681 0.82344L-1.77979 0.877913V0.932467H0.220215ZM1.00021 0.242467L0.947157 2.24176L0.973681 2.24247H1.00021V0.242467ZM21.0002 0.242467L21.0253 -1.75738L21.0127 -1.75753H21.0002V0.242467ZM21.7502 0.961217L23.7502 0.961217V0.947576L23.75 0.933936L21.7502 0.961217ZM16.5668 5.58337C16.7701 5.58505 16.9741 5.63864 17.1584 5.74481L15.162 9.21096C15.582 9.45289 16.0554 9.57927 16.5336 9.58323L16.5668 5.58337ZM17.1479 5.73876L16.6079 5.4321L14.6326 8.91034L15.1726 9.217L17.1479 5.73876ZM16.664 5.46521C16.9298 5.62784 17.1433 5.89691 17.2314 6.23489L13.361 7.24457C13.5421 7.93901 13.9874 8.51687 14.5764 8.87722L16.664 5.46521ZM17.2314 6.23489C17.3202 6.57506 17.2673 6.93205 17.0948 7.2257L13.6456 5.20006C13.2851 5.81391 13.1792 6.54795 13.361 7.24457L17.2314 6.23489ZM17.0619 7.27975C16.8781 7.57121 16.5984 7.75988 16.3009 7.83402L15.3338 3.95269C14.6626 4.11992 14.062 4.53792 13.6785 5.14602L17.0619 7.27975ZM16.3009 7.83402C16.0045 7.90786 15.6874 7.86981 15.4108 7.71858L17.3296 4.20885C16.7177 3.87429 16.0038 3.78575 15.3338 3.95269L16.3009 7.83402ZM15.3733 7.69753L15.7233 7.89878L17.7172 4.43116L17.3672 4.22991L15.3733 7.69753ZM16.8634 8.15983C19.0638 8.00188 20.4026 6.66373 21.1368 5.33573C21.8311 4.07988 22.0724 2.70628 22.1795 1.96683L18.2209 1.39311C18.1281 2.03365 17.9644 2.80672 17.6361 3.40046C17.3478 3.92203 17.0467 4.13639 16.577 4.1701L16.8634 8.15983ZM20.2002 -0.320033H1.80021V3.67997H20.2002V-0.320033ZM-0.189711 1.88045C-0.108194 2.68956 0.125473 4.07626 0.829881 5.33889C1.57565 6.67567 2.94172 7.99399 5.14984 8.10495L5.35059 4.10999C4.88871 4.08678 4.59978 3.88613 4.32305 3.3901C4.00496 2.81993 3.84862 2.05996 3.79014 1.47948L-0.189711 1.88045ZM6.24716 7.84128L6.59716 7.64003L4.60327 4.1724L4.25327 4.37365L6.24716 7.84128ZM6.55961 7.66108C6.28299 7.81231 5.9659 7.85035 5.66956 7.77652L6.63665 3.89519C5.96668 3.72825 5.25277 3.81679 4.64082 4.15135L6.55961 7.66108ZM5.66956 7.77652C5.37201 7.70238 5.09234 7.51371 4.90853 7.22225L8.2919 5.08852C7.9084 4.48042 7.30784 4.06242 6.63665 3.89519L5.66956 7.77652ZM4.87563 7.1682C4.70317 6.87456 4.65025 6.51756 4.73899 6.17739L8.60946 7.18707C8.79119 6.49045 8.6853 5.75641 8.3248 5.14256L4.87563 7.1682ZM4.73899 6.17739C4.82716 5.83941 5.0406 5.57034 5.3064 5.40771L7.39403 8.81972C7.98298 8.45937 8.42831 7.88151 8.60946 7.18707L4.73899 6.17739ZM5.36257 5.37459L4.82257 5.68126L6.79786 9.15951L7.33786 8.85284L5.36257 5.37459ZM4.81199 5.68731C4.99633 5.58114 5.20037 5.52755 5.40364 5.52587L5.43679 9.52573C5.91504 9.52177 6.38841 9.39539 6.80844 9.15346L4.81199 5.68731ZM5.42021 5.5258C4.22819 5.5258 3.52131 4.96921 3.01146 4.08522C2.44673 3.10606 2.22021 1.82806 2.22021 0.932467H-1.77979C-1.77979 2.31771 -1.4613 4.33637 -0.453532 6.08367C0.609121 7.92614 2.50224 9.5258 5.42021 9.5258V5.5258ZM2.21724 1.04149C2.19767 1.39988 2.03321 1.71715 1.78883 1.93333L-0.861464 -1.06265C-1.39731 -0.588634 -1.73652 0.0854377 -1.77681 0.82344L2.21724 1.04149ZM1.78883 1.93333C1.54717 2.14711 1.24437 2.24965 0.947157 2.24176L1.05327 -1.75683C0.359549 -1.77524 -0.328336 -1.53427 -0.861464 -1.06265L1.78883 1.93333ZM1.00021 2.24247H21.0002V-1.75753H1.00021V2.24247ZM20.9752 2.24231C20.6781 2.23859 20.3783 2.12438 20.1439 1.89971L22.9115 -0.988248C22.3969 -1.48144 21.7186 -1.74869 21.0253 -1.75738L20.9752 2.24231ZM20.1439 1.89971C19.9067 1.67244 19.7553 1.3474 19.7504 0.988498L23.75 0.933936C23.74 0.195331 23.4288 -0.492467 22.9115 -0.988248L20.1439 1.89971ZM19.7502 0.961217C19.7502 1.85732 19.5235 3.14438 18.9567 4.13228C18.4438 5.02631 17.7359 5.5833 16.5502 5.5833V9.5833C19.4746 9.5833 21.3667 7.96967 22.4262 6.12286C23.4319 4.36993 23.7502 2.34595 23.7502 0.961217H19.7502Z" fill="white" mask="url(#path-3-inside-2_1844_1438)"/>
<path d="M11 18.7578C10.8019 18.7554 10.6126 18.6788 10.4725 18.5446C10.3324 18.4103 10.2526 18.2289 10.25 18.0391V12.7012C10.25 12.5105 10.329 12.3277 10.4697 12.1929C10.6103 12.0581 10.8011 11.9824 11 11.9824C11.1989 11.9824 11.3897 12.0581 11.5303 12.1929C11.671 12.3277 11.75 12.5105 11.75 12.7012V18.0391C11.7474 18.2289 11.6676 18.4103 11.5275 18.5446C11.3874 18.6788 11.1981 18.7554 11 18.7578V18.7578Z" fill="white"/>
<path d="M16.5703 18.7578H6.57031C6.3714 18.7578 6.18063 18.6821 6.03998 18.5473C5.89933 18.4125 5.82031 18.2297 5.82031 18.0391C5.82031 17.8484 5.89933 17.6656 6.03998 17.5308C6.18063 17.396 6.3714 17.3203 6.57031 17.3203H16.5703C16.7692 17.3203 16.96 17.396 17.1006 17.5308C17.2413 17.6656 17.3203 17.8484 17.3203 18.0391C17.3203 18.2297 17.2413 18.4125 17.1006 18.5473C16.96 18.6821 16.7692 18.7578 16.5703 18.7578Z" fill="white"/>
</svg>
