<svg width="18" height="16" viewBox="0 0 18 16" fill="none" xmlns="http://www.w3.org/2000/svg">
<path d="M9.77731 16C7.62689 16 5.87307 14.408 5.87307 12.448V8.616H11.161C11.5399 8.616 11.8396 8.344 11.8396 8C11.8396 7.664 11.5399 7.384 11.161 7.384H5.87307V3.56C5.87307 1.6 7.62689 -2.38419e-07 9.79493 -2.38419e-07H14.087C16.2462 -2.38419e-07 18 1.592 18 3.552V12.44C18 14.408 16.2374 16 14.0781 16H9.77731ZM3.67273 10.7598C3.41286 11.0078 2.98842 11.0078 2.72856 10.7678L0.199228 8.43984C0.0692966 8.31984 2.17976e-07 8.16784 2.17976e-07 7.99984C2.17976e-07 7.83984 0.0692966 7.67984 0.199228 7.56784L2.72856 5.23984C2.85849 5.11984 3.03173 5.05584 3.19631 5.05584C3.36955 5.05584 3.5428 5.11984 3.67273 5.23984C3.93259 5.47984 3.93259 5.87184 3.67273 6.11184L2.28679 7.38384H5.8729V8.61584H2.28679L3.67273 9.88784C3.93259 10.1278 3.93259 10.5198 3.67273 10.7598Z" fill="#FE602F"/>
</svg>
