<svg width="33" height="34" viewBox="0 0 33 34" fill="none" xmlns="http://www.w3.org/2000/svg">
<path fill-rule="evenodd" clip-rule="evenodd" d="M2.75 23.5108C2.75 22.9713 2.96272 22.4549 3.33937 22.0801L4.75419 20.6722C5.29277 20.1362 5.59594 19.3972 5.59369 18.6257L5.58068 14.1589C5.56247 7.90944 10.4746 2.83325 16.5403 2.83325C22.5932 2.83325 27.5 7.88875 27.5 14.125L27.5 18.6596C27.5 19.4111 27.7897 20.1318 28.3054 20.6631L29.6804 22.0798C30.0451 22.4555 30.25 22.9651 30.25 23.4965C30.25 24.6029 29.3794 25.4999 28.3054 25.4999H22C22 28.6295 19.5376 31.1666 16.5 31.1666C13.4624 31.1666 11 28.6295 11 25.4999H4.68061C3.61436 25.4999 2.75 24.6094 2.75 23.5108ZM13.75 25.4999C13.75 27.0647 14.9812 28.3333 16.5 28.3333C18.0188 28.3333 19.25 27.0647 19.25 25.4999H13.75ZM24.75 18.6596C24.75 20.1625 25.3295 21.6039 26.3609 22.6666L6.70794 22.6666C7.75805 21.5984 8.34811 20.1393 8.34368 18.6172L8.33066 14.1504C8.31702 9.46906 11.9966 5.66659 16.5403 5.66659C21.0744 5.66659 24.75 9.45356 24.75 14.125L24.75 18.6596Z" fill="#FE602F"/>
</svg>
