<svg width="20" height="18" viewBox="0 0 20 18" fill="none" xmlns="http://www.w3.org/2000/svg">
<path d="M18.5433 6.75289L16.8108 6.21051L17.6267 4.67807C17.7094 4.51766 17.737 4.33711 17.7058 4.16132C17.6746 3.98552 17.5861 3.82316 17.4525 3.69662L15.5 1.86285C15.3645 1.73551 15.19 1.65125 15.0009 1.6219C14.8118 1.59256 14.6177 1.61962 14.4458 1.69928L12.8141 2.4655L12.2366 0.838359C12.1757 0.668751 12.0599 0.521218 11.9055 0.416291C11.751 0.311364 11.5656 0.254262 11.375 0.252933H8.62498C8.43281 0.252467 8.24534 0.308737 8.08907 0.413789C7.93281 0.518841 7.81565 0.667362 7.75415 0.838359L7.17665 2.4655L5.54498 1.69928C5.3742 1.62161 5.18195 1.59563 4.99477 1.62493C4.8076 1.65423 4.63472 1.73736 4.49998 1.86285L2.54748 3.69662C2.41189 3.82383 2.32217 3.98776 2.29093 4.16535C2.25969 4.34294 2.2885 4.52526 2.37332 4.68668L3.18915 6.21911L1.45665 6.76149C1.27606 6.81878 1.11897 6.9275 1.00725 7.07255C0.895531 7.2176 0.834732 7.39174 0.833316 7.57076V10.1535C0.83282 10.334 0.892733 10.5101 1.00459 10.6568C1.11644 10.8036 1.27458 10.9136 1.45665 10.9714L3.18915 11.5138L2.37332 13.0462C2.29061 13.2066 2.26295 13.3872 2.29415 13.563C2.32535 13.7388 2.41386 13.9011 2.54748 14.0277L4.49998 15.8614C4.63543 15.9888 4.80998 16.073 4.99907 16.1024C5.18816 16.1317 5.38228 16.1047 5.55415 16.025L7.18582 15.2588L7.76332 16.8859C7.82481 17.0569 7.94197 17.2054 8.09824 17.3105C8.25451 17.4155 8.44198 17.4718 8.63415 17.4713H11.3842C11.5763 17.4718 11.7638 17.4155 11.9201 17.3105C12.0763 17.2054 12.1935 17.0569 12.255 16.8859L12.8325 15.2588L14.4642 16.025C14.6338 16.1007 14.8242 16.1256 15.0095 16.0964C15.1948 16.0671 15.366 15.9851 15.5 15.8614L17.4525 14.0277C17.5881 13.9005 17.6778 13.7365 17.709 13.5589C17.7403 13.3813 17.7115 13.199 17.6267 13.0376L16.8108 11.5052L18.5433 10.9628C18.7239 10.9055 18.881 10.7968 18.9927 10.6517C19.1044 10.5067 19.1652 10.3325 19.1667 10.1535V7.57076C19.1671 7.39027 19.1072 7.2142 18.9954 7.06744C18.8835 6.92068 18.7254 6.81064 18.5433 6.75289ZM17.3333 9.53366L16.2333 9.87803C15.9804 9.95509 15.7483 10.0829 15.5532 10.2526C15.3581 10.4223 15.2047 10.6299 15.1035 10.8608C15.0023 11.0918 14.9559 11.3407 14.9674 11.5902C14.9788 11.8397 15.048 12.0839 15.17 12.3058L15.6925 13.2873L14.6842 14.2343L13.6666 13.7177C13.4316 13.6077 13.1741 13.5465 12.9116 13.5381C12.6491 13.5296 12.3878 13.5743 12.1453 13.669C11.9028 13.7637 11.6848 13.9062 11.506 14.0869C11.3272 14.2676 11.1919 14.4823 11.1091 14.7164L10.7425 15.7495H9.28498L8.91832 14.7164C8.83627 14.4788 8.70017 14.2609 8.51947 14.0776C8.33877 13.8944 8.1178 13.7503 7.87187 13.6553C7.62594 13.5603 7.36095 13.5166 7.09527 13.5274C6.8296 13.5382 6.5696 13.6032 6.33332 13.7177L5.28832 14.2085L4.27998 13.2614L4.82998 12.3058C4.95199 12.0839 5.02113 11.8397 5.03261 11.5902C5.04409 11.3407 4.99764 11.0918 4.89648 10.8608C4.79531 10.6299 4.64186 10.4223 4.44677 10.2526C4.25167 10.0829 4.0196 9.95509 3.76665 9.87803L2.66665 9.53366V8.19062L3.76665 7.84625C4.0196 7.76919 4.25167 7.64138 4.44677 7.47167C4.64186 7.30196 4.79531 7.09442 4.89648 6.86344C4.99764 6.63247 5.04409 6.38359 5.03261 6.13408C5.02113 5.88456 4.95199 5.64037 4.82998 5.41846L4.30748 4.46284L5.31582 3.51582L6.33332 4.00655C6.5696 4.12113 6.8296 4.18607 7.09527 4.19685C7.36095 4.20763 7.62594 4.16401 7.87187 4.069C8.1178 3.97399 8.33877 3.82987 8.51947 3.64664C8.70017 3.4634 8.83627 3.24544 8.91832 3.00788L9.28498 1.97477H10.715L11.0816 3.00788C11.1637 3.24544 11.2998 3.4634 11.4805 3.64664C11.6612 3.82987 11.8822 3.97399 12.1281 4.069C12.374 4.16401 12.639 4.20763 12.9047 4.19685C13.1704 4.18607 13.4304 4.12113 13.6666 4.00655L14.7116 3.51582L15.72 4.46284L15.17 5.41846C15.0529 5.63924 14.9876 5.88107 14.9787 6.12759C14.9697 6.37411 15.0173 6.61955 15.1181 6.84731C15.2189 7.07507 15.3707 7.27983 15.5631 7.44772C15.7555 7.61561 15.9841 7.74271 16.2333 7.82043L17.3333 8.16479V9.53366ZM9.99998 5.41846C9.27479 5.41846 8.56587 5.62043 7.96289 5.99882C7.35991 6.37722 6.88995 6.91505 6.61242 7.5443C6.3349 8.17355 6.26229 8.86596 6.40377 9.53397C6.54525 10.202 6.89447 10.8156 7.40726 11.2972C7.92005 11.7788 8.57339 12.1068 9.28465 12.2397C9.99592 12.3725 10.7332 12.3043 11.4032 12.0437C12.0732 11.783 12.6458 11.3417 13.0487 10.7753C13.4516 10.209 13.6666 9.54324 13.6666 8.86214C13.6666 7.94882 13.2803 7.07291 12.5927 6.42709C11.9051 5.78127 10.9724 5.41846 9.99998 5.41846ZM9.99998 10.584C9.63738 10.584 9.28293 10.483 8.98144 10.2938C8.67995 10.1046 8.44496 9.83569 8.3062 9.52106C8.16744 9.20644 8.13114 8.86023 8.20188 8.52623C8.27262 8.19222 8.44722 7.88542 8.70362 7.64462C8.96002 7.40381 9.28669 7.23982 9.64232 7.17338C9.99795 7.10695 10.3666 7.14104 10.7016 7.27137C11.0366 7.40169 11.3229 7.62238 11.5243 7.90554C11.7258 8.18869 11.8333 8.52159 11.8333 8.86214C11.8333 9.3188 11.6402 9.75676 11.2963 10.0797C10.9525 10.4026 10.4862 10.584 9.99998 10.584Z" fill="#FE602F"/>
</svg>
