<svg width="21" height="19" viewBox="0 0 21 19" fill="none" xmlns="http://www.w3.org/2000/svg">
<path d="M20.2083 7.21725L18.2395 6.62103L19.1666 4.93646C19.2606 4.76013 19.292 4.56166 19.2566 4.36841C19.2211 4.17517 19.1205 3.99668 18.9687 3.85758L16.7499 1.84177C16.596 1.70179 16.3977 1.60915 16.1828 1.5769C15.9679 1.54465 15.7473 1.57439 15.552 1.66196L13.6978 2.50424L13.0416 0.715569C12.9723 0.529123 12.8407 0.366943 12.6652 0.2516C12.4897 0.136256 12.279 0.0734862 12.0624 0.0720246H8.93742C8.71904 0.0715125 8.50601 0.133369 8.32843 0.24885C8.15086 0.364331 8.01772 0.527596 7.94784 0.715569L7.29159 2.50424L5.43742 1.66196C5.24334 1.57657 5.02489 1.54801 4.81218 1.58022C4.59948 1.61243 4.40303 1.70382 4.24992 1.84177L2.03117 3.85758C1.87709 3.99742 1.77514 4.17762 1.73964 4.37284C1.70414 4.56806 1.73688 4.76849 1.83326 4.94592L2.76034 6.63049L0.791589 7.22672C0.586372 7.28969 0.407866 7.40921 0.28091 7.56865C0.153954 7.7281 0.0848641 7.91954 0.0832554 8.11632V10.9555C0.0826917 11.1539 0.150775 11.3474 0.277882 11.5088C0.40499 11.6701 0.584692 11.7911 0.791589 11.8546L2.76034 12.4508L1.83326 14.1354C1.73928 14.3117 1.70784 14.5102 1.74329 14.7034C1.77874 14.8966 1.87933 15.0751 2.03117 15.2142L4.24992 17.23C4.40384 17.37 4.60219 17.4627 4.81706 17.4949C5.03194 17.5272 5.25254 17.4974 5.44784 17.4099L7.30201 16.5676L7.95826 18.3562C8.02814 18.5442 8.16127 18.7075 8.33885 18.823C8.51643 18.9384 8.72946 19.0003 8.94784 18.9998H12.0728C12.2912 19.0003 12.5043 18.9384 12.6818 18.823C12.8594 18.7075 12.9925 18.5442 13.0624 18.3562L13.7187 16.5676L15.5728 17.4099C15.7657 17.4931 15.982 17.5205 16.1925 17.4883C16.4031 17.4561 16.5976 17.366 16.7499 17.23L18.9687 15.2142C19.1227 15.0744 19.2247 14.8942 19.2602 14.699C19.2957 14.5037 19.263 14.3033 19.1666 14.1259L18.2395 12.4413L20.2083 11.8451C20.4135 11.7821 20.592 11.6626 20.7189 11.5032C20.8459 11.3437 20.915 11.1523 20.9166 10.9555V8.11632C20.9172 7.91792 20.8491 7.72437 20.722 7.56304C20.5949 7.4017 20.4152 7.28074 20.2083 7.21725ZM18.8333 10.2741L17.5833 10.6526C17.2958 10.7374 17.0321 10.8779 16.8104 11.0644C16.5887 11.251 16.4143 11.4791 16.2994 11.733C16.1844 11.9869 16.1316 12.2605 16.1447 12.5348C16.1577 12.8091 16.2363 13.0775 16.3749 13.3215L16.9687 14.4003L15.8228 15.4414L14.6666 14.8735C14.3995 14.7526 14.1069 14.6853 13.8086 14.676C13.5103 14.6668 13.2133 14.7159 12.9378 14.82C12.6622 14.9241 12.4144 15.0807 12.2113 15.2794C12.0082 15.478 11.8544 15.714 11.7603 15.9713L11.3437 17.107H9.68742L9.27075 15.9713C9.17752 15.7102 9.02286 15.4706 8.81752 15.2692C8.61218 15.0678 8.36107 14.9093 8.08161 14.8049C7.80214 14.7004 7.50102 14.6525 7.19911 14.6643C6.89721 14.6762 6.60176 14.7476 6.33326 14.8735L5.14576 15.413L3.99992 14.3719L4.62492 13.3215C4.76356 13.0775 4.84213 12.8091 4.85518 12.5348C4.86823 12.2605 4.81544 11.9869 4.70048 11.733C4.58553 11.4791 4.41115 11.251 4.18945 11.0644C3.96775 10.8779 3.70403 10.7374 3.41659 10.6526L2.16659 10.2741V8.79772L3.41659 8.41917C3.70403 8.33446 3.96775 8.19395 4.18945 8.00739C4.41115 7.82083 4.58553 7.59269 4.70048 7.33879C4.81544 7.08489 4.86823 6.8113 4.85518 6.53701C4.84213 6.26273 4.76356 5.9943 4.62492 5.75035L4.03117 4.69986L5.17701 3.65884L6.33326 4.19828C6.60176 4.32423 6.89721 4.39562 7.19911 4.40747C7.50102 4.41933 7.80214 4.37137 8.08161 4.26693C8.36107 4.16248 8.61218 4.00406 8.81752 3.80263C9.02286 3.60121 9.17752 3.36162 9.27075 3.10047L9.68742 1.9648H11.3124L11.7291 3.10047C11.8223 3.36162 11.977 3.60121 12.1823 3.80263C12.3877 4.00406 12.6388 4.16248 12.9182 4.26693C13.1977 4.37137 13.4988 4.41933 13.8007 4.40747C14.1026 4.39562 14.3981 4.32423 14.6666 4.19828L15.8541 3.65884L16.9999 4.69986L16.3749 5.75035C16.2418 5.99305 16.1677 6.25889 16.1575 6.52988C16.1473 6.80087 16.2014 7.07069 16.316 7.32106C16.4305 7.57143 16.603 7.79651 16.8216 7.98107C17.0403 8.16562 17.3 8.30535 17.5833 8.39078L18.8333 8.76933V10.2741ZM10.4999 5.75035C9.67583 5.75035 8.87025 5.97237 8.18505 6.38833C7.49984 6.8043 6.96579 7.39552 6.65042 8.08724C6.33506 8.77896 6.25254 9.5401 6.41332 10.2744C6.57409 11.0088 6.97092 11.6833 7.55364 12.2127C8.13636 12.7421 8.87879 13.1027 9.68705 13.2487C10.4953 13.3948 11.3331 13.3198 12.0944 13.0333C12.8558 12.7468 13.5065 12.2616 13.9644 11.639C14.4222 11.0165 14.6666 10.2846 14.6666 9.5359C14.6666 8.53191 14.2276 7.56904 13.4462 6.85912C12.6648 6.14919 11.605 5.75035 10.4999 5.75035ZM10.4999 11.4287C10.0879 11.4287 9.68509 11.3177 9.34248 11.1097C8.99988 10.9017 8.73285 10.6061 8.57517 10.2602C8.41749 9.91438 8.37623 9.5338 8.45662 9.16664C8.537 8.79948 8.73542 8.46222 9.02678 8.19751C9.31814 7.9328 9.68936 7.75253 10.0935 7.6795C10.4976 7.60646 10.9165 7.64395 11.2972 7.78721C11.6779 7.93047 12.0032 8.17307 12.2321 8.48433C12.4611 8.7956 12.5833 9.16155 12.5833 9.5359C12.5833 10.0379 12.3638 10.5193 11.9731 10.8743C11.5824 11.2293 11.0525 11.4287 10.4999 11.4287Z" fill="white"/>
</svg>
