<svg width="11" height="11" viewBox="0 0 11 11" fill="none" xmlns="http://www.w3.org/2000/svg">
<path d="M1.1001 8.43343V7.93343C0.823955 7.93343 0.600098 8.15729 0.600098 8.43343H1.1001ZM9.9001 8.43343H10.4001C10.4001 8.15729 10.1762 7.93343 9.9001 7.93343V8.43343ZM9.9001 9.9001V10.4001C10.1762 10.4001 10.4001 10.1762 10.4001 9.9001H9.9001ZM1.1001 9.9001H0.600098C0.600098 10.1762 0.823955 10.4001 1.1001 10.4001V9.9001ZM1.1001 4.03343H0.600098C0.600098 4.30957 0.823955 4.53343 1.1001 4.53343V4.03343ZM1.1001 3.05565L0.889838 2.60201C0.713159 2.6839 0.600098 2.86092 0.600098 3.05565H1.1001ZM5.31928 1.1001L5.51559 0.640247C5.3853 0.584629 5.23754 0.586886 5.10902 0.646456L5.31928 1.1001ZM9.9001 3.05565H10.4001C10.4001 2.85538 10.2806 2.67443 10.0964 2.5958L9.9001 3.05565ZM9.9001 4.03343V4.53343C10.1762 4.53343 10.4001 4.30957 10.4001 4.03343H9.9001ZM1.33343 6.8751C1.33343 7.15124 1.55729 7.3751 1.83343 7.3751C2.10957 7.3751 2.33343 7.15124 2.33343 6.8751H1.33343ZM2.33343 5.65196C2.33343 5.37582 2.10957 5.15196 1.83343 5.15196C1.55729 5.15196 1.33343 5.37582 1.33343 5.65196H2.33343ZM3.77788 6.8751C3.77788 7.15124 4.00173 7.3751 4.27788 7.3751C4.55402 7.3751 4.77788 7.15124 4.77788 6.8751H3.77788ZM4.77788 5.65196C4.77788 5.37582 4.55402 5.15196 4.27788 5.15196C4.00173 5.15196 3.77788 5.37582 3.77788 5.65196H4.77788ZM6.22232 6.8751C6.22232 7.15124 6.44618 7.3751 6.72232 7.3751C6.99846 7.3751 7.22232 7.15124 7.22232 6.8751H6.22232ZM7.22232 5.65196C7.22232 5.37582 6.99846 5.15196 6.72232 5.15196C6.44618 5.15196 6.22232 5.37582 6.22232 5.65196H7.22232ZM8.66676 6.8751C8.66676 7.15124 8.89062 7.3751 9.16676 7.3751C9.44291 7.3751 9.66676 7.15124 9.66676 6.8751H8.66676ZM9.66676 5.65196C9.66676 5.37582 9.44291 5.15196 9.16676 5.15196C8.89062 5.15196 8.66676 5.37582 8.66676 5.65196H9.66676ZM1.1001 8.93343H9.9001V7.93343H1.1001V8.93343ZM9.4001 8.43343V9.9001H10.4001V8.43343H9.4001ZM9.9001 9.4001H1.1001V10.4001H9.9001V9.4001ZM1.6001 9.9001V8.43343H0.600098V9.9001H1.6001ZM1.6001 4.03343V3.05565H0.600098V4.03343H1.6001ZM1.31036 3.50929L5.52953 1.55374L5.10902 0.646456L0.889838 2.60201L1.31036 3.50929ZM5.12296 1.55995L9.70379 3.5155L10.0964 2.5958L5.51559 0.640247L5.12296 1.55995ZM9.4001 3.05565V4.03343H10.4001V3.05565H9.4001ZM9.9001 3.53343H1.1001V4.53343H9.9001V3.53343ZM2.33343 6.8751V5.65196H1.33343V6.8751H2.33343ZM4.77788 6.8751V5.65196H3.77788V6.8751H4.77788ZM7.22232 6.8751V5.65196H6.22232V6.8751H7.22232ZM9.66676 6.8751V5.65196H8.66676V6.8751H9.66676Z" fill="white"/>
</svg>
