<svg width="11" height="11" viewBox="0 0 11 11" fill="none" xmlns="http://www.w3.org/2000/svg">
<path d="M8.25 1.375V1.375C9.00939 1.375 9.625 1.99061 9.625 2.75L9.625 3.73214C9.625 3.94911 9.44911 4.125 9.23214 4.125L6.875 4.125M8.25 1.375V1.375C7.49061 1.375 6.875 1.99061 6.875 2.75L6.875 4.125M8.25 1.375L5.375 1.375C3.48938 1.375 2.54657 1.375 1.96079 1.96079C1.375 2.54658 1.375 3.48938 1.375 5.375L1.375 9.625L2.75 9.16667L4.125 9.625L5.5 9.16667L6.875 9.625L6.875 4.125" stroke="white"/>
<path d="M3.20825 3.2085L5.04159 3.2085" stroke="white" stroke-linecap="round"/>
<path d="M3.66675 5.0415H3.20841" stroke="white" stroke-linecap="round"/>
<path d="M3.20825 6.875L4.58325 6.875" stroke="white" stroke-linecap="round"/>
</svg>
