<svg width="11" height="11" viewBox="0 0 11 11" fill="none" xmlns="http://www.w3.org/2000/svg">
<path d="M8.23943 1.92991C8.03595 1.77378 7.81999 1.6357 7.59405 1.51691C7.22131 1.32095 7.03494 1.22297 6.81465 1.31937C6.59437 1.41576 6.53153 1.65026 6.40587 2.11926L5.75882 4.53407C5.63681 4.98942 5.57581 5.21709 5.67936 5.39645C5.78291 5.57581 6.01058 5.63681 6.46593 5.75882L8.88074 6.40587C9.34974 6.53153 9.58424 6.59437 9.77786 6.45179C9.97148 6.30922 9.97981 6.09883 9.99648 5.67805C10.0066 5.42298 9.99498 5.16692 9.9615 4.91263C9.88437 4.32674 9.69259 3.76178 9.39711 3.25C9.10164 2.73822 8.70826 2.28966 8.23943 1.92991Z" stroke="white"/>
<path d="M4.75515 3.42962C4.08445 3.34166 3.40263 3.44994 2.79218 3.74137C2.18173 4.0328 1.66881 4.49488 1.31547 5.07171C0.962135 5.64854 0.783525 6.3154 0.801251 6.99162C0.818976 7.66783 1.03228 8.32442 1.41535 8.88195C1.79842 9.43947 2.33484 9.87405 2.95972 10.1331C3.5846 10.3921 4.27116 10.4646 4.93633 10.3416C5.60151 10.2186 6.21679 9.90551 6.70775 9.44017C7.19871 8.97483 7.5443 8.3772 7.70272 7.71956" stroke="white"/>
</svg>
