<?xml version="1.0" encoding="utf-8"?>
<svg viewBox="1.549 1.313 8.992 8.913" fill="none" xmlns="http://www.w3.org/2000/svg">
  <path d="M6 1.8335L2.5 3.2085L6 4.5835L9.5 3.2085L6 1.8335Z" stroke="white" stroke-linejoin="round"/>
  <path fill-rule="evenodd" clip-rule="evenodd" d="M2.1 5.2002C2.03647 5.28492 2 5.38952 2 5.5002C2 5.70578 2.12583 5.89041 2.31717 5.96558L5.81717 7.34058C5.93469 7.38674 6.06531 7.38674 6.18283 7.34058L9.68283 5.96558C9.87417 5.89041 10 5.70578 10 5.5002C10 5.38952 9.96353 5.28492 9.9 5.2002L6.7313 6.44504C6.26125 6.6297 5.73875 6.6297 5.2687 6.44504L2.1 5.2002Z" fill="white"/>
  <path fill-rule="evenodd" clip-rule="evenodd" d="M2.1 7.4917C2.03647 7.57642 2 7.68103 2 7.79171C2 7.99728 2.12583 8.18191 2.31717 8.25708L5.81717 9.63208C5.93469 9.67825 6.06531 9.67825 6.18283 9.63208L9.68283 8.25708C9.87417 8.18191 10 7.99728 10 7.79171C10 7.68103 9.96353 7.57642 9.9 7.4917L6.7313 8.73654C6.26125 8.9212 5.73875 8.9212 5.2687 8.73654L2.1 7.4917Z" fill="white"/>
</svg>