<svg width="11" height="11" viewBox="0 0 11 11" fill="none" xmlns="http://www.w3.org/2000/svg">
<g clip-path="url(#clip0_1302_453)">
<path d="M6.32009 4.58907C6.41039 4.85003 6.69514 4.98837 6.9561 4.89807C7.21706 4.80777 7.35541 4.52302 7.26511 4.26205L6.32009 4.58907ZM6.0501 3.86537L6.07206 3.36586C6.06475 3.36554 6.05742 3.36537 6.0501 3.36537V3.86537ZM4.9501 5.54593V6.04593V5.54593ZM6.0501 7.22649V7.72649V7.22649ZM4.9501 7.22649L4.92813 7.726C4.93545 7.72633 4.94277 7.72649 4.9501 7.72649V7.22649ZM4.68011 6.50279C4.58981 6.24183 4.30505 6.10349 4.04409 6.19379C3.78313 6.28409 3.64479 6.56885 3.73509 6.82981L4.68011 6.50279ZM6.0001 3.0251C6.0001 2.74895 5.77624 2.5251 5.5001 2.5251C5.22396 2.5251 5.0001 2.74895 5.0001 3.0251H6.0001ZM5.0001 3.86537C5.0001 4.14152 5.22396 4.36537 5.5001 4.36537C5.77624 4.36537 6.0001 4.14152 6.0001 3.86537H5.0001ZM6.0001 7.22649C6.0001 6.95034 5.77624 6.72649 5.5001 6.72649C5.22396 6.72649 5.0001 6.95034 5.0001 7.22649H6.0001ZM5.0001 8.06676C5.0001 8.34291 5.22396 8.56676 5.5001 8.56676C5.77624 8.56676 6.0001 8.34291 6.0001 8.06676H5.0001ZM7.26511 4.26205C7.17825 4.01103 7.01911 3.79076 6.80671 3.63051L6.20443 4.4288C6.25668 4.46822 6.29747 4.52371 6.32009 4.58907L7.26511 4.26205ZM6.80671 3.63051C6.59419 3.47018 6.33836 3.37757 6.07206 3.36586L6.02813 4.36489C6.09087 4.36765 6.1523 4.38947 6.20443 4.4288L6.80671 3.63051ZM6.0501 3.36537H4.9501V4.36537H6.0501V3.36537ZM4.9501 3.36537C4.59569 3.36537 4.2577 3.50885 4.00995 3.76119L4.72352 4.46178C4.7852 4.39895 4.86689 4.36537 4.9501 4.36537V3.36537ZM4.00995 3.76119C3.76251 4.01322 3.6251 4.35312 3.6251 4.70565H4.6251C4.6251 4.61247 4.66153 4.52492 4.72352 4.46178L4.00995 3.76119ZM3.6251 4.70565C3.6251 5.05819 3.76251 5.39809 4.00995 5.65011L4.72352 4.94952C4.66153 4.88638 4.6251 4.79883 4.6251 4.70565H3.6251ZM4.00995 5.65011C4.2577 5.90245 4.59569 6.04593 4.9501 6.04593V5.04593C4.86689 5.04593 4.7852 5.01235 4.72352 4.94952L4.00995 5.65011ZM4.9501 6.04593H6.0501V5.04593H4.9501V6.04593ZM6.0501 6.04593C6.1333 6.04593 6.21499 6.07951 6.27668 6.14234L6.99024 5.44175C6.74249 5.18941 6.4045 5.04593 6.0501 5.04593V6.04593ZM6.27668 6.14234C6.33867 6.20548 6.3751 6.29303 6.3751 6.38621H7.3751C7.3751 6.03367 7.23769 5.69377 6.99024 5.44175L6.27668 6.14234ZM6.3751 6.38621C6.3751 6.47938 6.33867 6.56694 6.27668 6.63008L6.99024 7.33067C7.23769 7.07864 7.3751 6.73874 7.3751 6.38621H6.3751ZM6.27668 6.63008C6.21499 6.69291 6.1333 6.72649 6.0501 6.72649V7.72649C6.4045 7.72649 6.74249 7.58301 6.99024 7.33067L6.27668 6.63008ZM6.0501 6.72649H4.9501V7.72649H6.0501V6.72649ZM4.97206 6.72697C4.90932 6.72421 4.84789 6.70239 4.79576 6.66306L4.19349 7.46135C4.406 7.62168 4.66183 7.71429 4.92813 7.726L4.97206 6.72697ZM4.79576 6.66306C4.74351 6.62364 4.70272 6.56815 4.68011 6.50279L3.73509 6.82981C3.82195 7.08083 3.98108 7.3011 4.19349 7.46135L4.79576 6.66306ZM5.0001 3.0251V3.86537H6.0001V3.0251H5.0001ZM5.0001 7.22649V8.06676H6.0001V7.22649H5.0001ZM9.4001 5.5001C9.4001 7.65401 7.65401 9.4001 5.5001 9.4001V10.4001C8.20629 10.4001 10.4001 8.20629 10.4001 5.5001H9.4001ZM5.5001 9.4001C3.34619 9.4001 1.6001 7.65401 1.6001 5.5001H0.600098C0.600098 8.20629 2.7939 10.4001 5.5001 10.4001V9.4001ZM1.6001 5.5001C1.6001 3.34619 3.34619 1.6001 5.5001 1.6001V0.600098C2.7939 0.600098 0.600098 2.7939 0.600098 5.5001H1.6001ZM5.5001 1.6001C7.65401 1.6001 9.4001 3.34619 9.4001 5.5001H10.4001C10.4001 2.7939 8.20629 0.600098 5.5001 0.600098V1.6001Z" fill="white"/>
</g>
<defs>
<clipPath id="clip0_1302_453">
<rect width="11" height="11" fill="white"/>
</clipPath>
</defs>
</svg>
