<?xml version="1.0" encoding="utf-8"?>
<svg viewBox="1.27 0.962 9.395 8.812" fill="none" xmlns="http://www.w3.org/2000/svg">
  <path d="M7.65063 4.8125L6.16987 6.1875L5.18269 5.27083L3.70192 6.64583" stroke="white" stroke-linecap="round" stroke-linejoin="round"/>
  <path d="M6.91026 2.2915H5.17436C4.05426 2.2915 3.49421 2.2915 3.06638 2.50949C2.69006 2.70124 2.3841 3.0072 2.19235 3.38352C1.97437 3.81135 1.97437 4.3714 1.97437 5.4915V5.9665C1.97437 7.08661 1.97437 7.64666 2.19235 8.07449C2.3841 8.45081 2.69006 8.75677 3.06638 8.94852C3.49421 9.1665 4.05426 9.1665 5.17437 9.1665H6.17821C7.29832 9.1665 7.85837 9.1665 8.28619 8.94852C8.66252 8.75677 8.96848 8.45081 9.16022 8.07449C9.37821 7.64666 9.37821 7.08661 9.37821 5.9665V4.58317" stroke="white" stroke-linecap="round"/>
  <ellipse cx="9.37829" cy="2.29167" rx="0.98718" ry="0.916667" fill="white"/>
</svg>